<mxfile host="app.diagrams.net" modified="2023-08-22T15:10:28.400Z" agent="Mozilla/5.0 (X11; Linux x86_64; rv:109.0) Gecko/20100101 Firefox/116.0" etag="HMSDGqcZqhZGFJU8_pn3" version="21.6.5" type="github">
  <diagram name="Page-1" id="w-iTJ5pj3WFP74z3MLMk">
    <mxGraphModel dx="1215" dy="697" grid="0" gridSize="10" guides="1" tooltips="1" connect="1" arrows="1" fold="1" page="1" pageScale="1" pageWidth="850" pageHeight="1100" background="#ffffff" math="0" shadow="0">
      <root>
        <mxCell id="0" />
        <mxCell id="1" parent="0" />
        <mxCell id="k5H__xr2OXsbT5dIlqPR-2" value="" style="rounded=0;whiteSpace=wrap;html=1;" parent="1" vertex="1">
          <mxGeometry x="40" y="80" width="120" height="20" as="geometry" />
        </mxCell>
        <mxCell id="k5H__xr2OXsbT5dIlqPR-3" value="" style="rounded=0;whiteSpace=wrap;html=1;" parent="1" vertex="1">
          <mxGeometry x="40" y="100" width="120" height="20" as="geometry" />
        </mxCell>
        <mxCell id="k5H__xr2OXsbT5dIlqPR-4" value="" style="rounded=0;whiteSpace=wrap;html=1;" parent="1" vertex="1">
          <mxGeometry x="40" y="140" width="120" height="20" as="geometry" />
        </mxCell>
        <mxCell id="k5H__xr2OXsbT5dIlqPR-5" value="" style="rounded=0;whiteSpace=wrap;html=1;" parent="1" vertex="1">
          <mxGeometry x="40" y="120" width="120" height="20" as="geometry" />
        </mxCell>
        <mxCell id="k5H__xr2OXsbT5dIlqPR-7" value="" style="rounded=0;whiteSpace=wrap;html=1;" parent="1" vertex="1">
          <mxGeometry x="40" y="240" width="120" height="20" as="geometry" />
        </mxCell>
        <mxCell id="k5H__xr2OXsbT5dIlqPR-8" value="" style="rounded=0;whiteSpace=wrap;html=1;" parent="1" vertex="1">
          <mxGeometry x="40" y="260" width="120" height="20" as="geometry" />
        </mxCell>
        <mxCell id="k5H__xr2OXsbT5dIlqPR-9" value="" style="rounded=0;whiteSpace=wrap;html=1;" parent="1" vertex="1">
          <mxGeometry x="40" y="300" width="120" height="20" as="geometry" />
        </mxCell>
        <mxCell id="k5H__xr2OXsbT5dIlqPR-10" value="" style="rounded=0;whiteSpace=wrap;html=1;" parent="1" vertex="1">
          <mxGeometry x="40" y="280" width="120" height="20" as="geometry" />
        </mxCell>
        <mxCell id="k5H__xr2OXsbT5dIlqPR-11" value="" style="rounded=0;whiteSpace=wrap;html=1;" parent="1" vertex="1">
          <mxGeometry x="40" y="400" width="120" height="20" as="geometry" />
        </mxCell>
        <mxCell id="k5H__xr2OXsbT5dIlqPR-12" value="" style="rounded=0;whiteSpace=wrap;html=1;" parent="1" vertex="1">
          <mxGeometry x="40" y="420" width="120" height="20" as="geometry" />
        </mxCell>
        <mxCell id="k5H__xr2OXsbT5dIlqPR-13" value="" style="rounded=0;whiteSpace=wrap;html=1;" parent="1" vertex="1">
          <mxGeometry x="40" y="460" width="120" height="20" as="geometry" />
        </mxCell>
        <mxCell id="k5H__xr2OXsbT5dIlqPR-14" value="" style="rounded=0;whiteSpace=wrap;html=1;" parent="1" vertex="1">
          <mxGeometry x="40" y="440" width="120" height="20" as="geometry" />
        </mxCell>
        <mxCell id="k5H__xr2OXsbT5dIlqPR-15" value="&lt;div style=&quot;font-size: 20px;&quot;&gt;&lt;font style=&quot;font-size: 20px;&quot;&gt;Server 1&lt;/font&gt;&lt;/div&gt;" style="text;html=1;align=center;verticalAlign=middle;resizable=0;points=[];autosize=1;fontColor=#000000;" parent="1" vertex="1">
          <mxGeometry x="54" y="158" width="94" height="36" as="geometry" />
        </mxCell>
        <mxCell id="k5H__xr2OXsbT5dIlqPR-16" value="&lt;div style=&quot;font-size: 20px;&quot;&gt;&lt;font style=&quot;font-size: 20px;&quot;&gt;Server 2&lt;br&gt;&lt;/font&gt;&lt;/div&gt;" style="text;html=1;align=center;verticalAlign=middle;resizable=0;points=[];autosize=1;fontColor=#000000;" parent="1" vertex="1">
          <mxGeometry x="54" y="318" width="94" height="36" as="geometry" />
        </mxCell>
        <mxCell id="k5H__xr2OXsbT5dIlqPR-17" value="&lt;div style=&quot;font-size: 20px;&quot;&gt;&lt;font style=&quot;font-size: 20px;&quot;&gt;Server 3&lt;br&gt;&lt;/font&gt;&lt;/div&gt;" style="text;html=1;align=center;verticalAlign=middle;resizable=0;points=[];autosize=1;fontColor=#000000;" parent="1" vertex="1">
          <mxGeometry x="54" y="478" width="94" height="36" as="geometry" />
        </mxCell>
        <mxCell id="k5H__xr2OXsbT5dIlqPR-19" value="" style="shape=image;verticalLabelPosition=bottom;labelBackgroundColor=default;verticalAlign=top;aspect=fixed;imageAspect=0;image=data:image/png,iVBORw0KGgoAAAANSUhEUgAAAlgAAAKKCAYAAADhkCX4AAAACXBIWXMAAAsSAAALEgHS3X78AAAgAElEQVR4nOzdd5zlVX3/8ffnnO9t02f7sL3A0lsAsSsaFGyJvaJpGvMzRmMSUxQ1mqJpv8QSjckvGo0iqIkVTRCwYAUpKqwUYVlgd9k6uzvlzv1+z+f3x70DCywLC3fnTnk9H1x2587s3O/Mzp157Tnne76ZuwsAAADtEzp9AAAAALMNgQUAANBmBBYAAECbEVgAAABtRmABAAC0GYEFAADQZgQWAABAmxFYAAAAbUZgAQAAtBmBBQAA0GYEFgAAQJsRWAAAAG1GYAEAALQZgQUAANBmBBYAAECbEVgAAABtRmABAAC0GYEFAADQZgQWAABAmxFYAAAAbUZgAQAAtBmBBQAA0GYEFgAAQJsRWAAAAG1GYAEAALQZgQUAANBmBBYAAECbEVgAAABtRmABAAC0GYEFAADQZgQWAABAmxFYAAAAbUZgAQAAtBmBBQAA0GYEFgAAQJsRWAAAAG1GYAEAALQZgQUAANBmBBYAAECbEVgAAABtRmABAAC0GYEFAADQZgQWAABAmxFYAAAAbUZgAQAAtBmBBQAA0GYEFgAAQJsRWAAAAG1GYAEAALQZgQUAANBmBBYAAECbEVgAAABtRmABAAC0GYEFAADQZgQWAABAmxFYAAAAbUZgAQAAtBmBBQAA0GYEFgAAQJsRWAAAAG1GYAEAALQZgQUAANBmBBYAAECbEVgAAABtRmABAAC0GYEFAADQZgQWAABAmxFYAAAAbUZgAQAAtBmBBQAA0GYEFgAAQJsRWAAAAG1GYAEAALQZgQUAANBmBBYAAECbEVgAAABtRmABAAC0GYEFAADQZgQWAABAmxFYAAAAbUZgAQAAtBmBBQAA0GYEFgAAQJsRWAAAAG1GYAEAALQZgQUAANBmBBYAAECbEVgAAABtRmABAAC0GYEFAADQZgQWAABAmxFYAAAAbUZgAQAAtBmBBQAA0GYEFgAAQJsRWAAAAG1GYAEAALQZgQUAANBmBBYAAECbEVgAAABtRmABAAC0GYEFAADQZgQWAABAmxFYAAAAbUZgAQAAtFnW6QMApjN3mUvW6ePAAbnZ/V7u0IEAwP0RWMBBmMlN8k4fBx5SkBQbyU3N8HKTuUkpUF0AOoDAAg7i9pF8/o560RfMCjGSNV2MJXfNr8SJ+ZUw4dJ4cqXeLKTSA2vKClfQvaNbk6NejHYBOKwILOAg/vSanef/54Y9r1LJ6nLWLE4Tu+VKS3tLI0f1lfYl9+HcteOIWtx20mBlW+G+eV1v6c61vdnGpV3Zrcu6suIA7yMUruByj2aJUUoA7UZgAQfRndlALIfBWsmU+BE8XSySpK3jhe4cyZv3mKTkuujmvZJLoRLG5lXi7v6S7Rgsx1tX92TXnDKv/P3T51evO3GwvHOgHEbLwVJrUDLkrhCk1JoSBoBHjcACDiK5isLlhatIrtjp44Gk1mhTZvJyye552WRuZmbNtVi13ROptr3uQ0qN46/cbs+5aOOIJE30lcM1T1lcveLMBdUrj+4vXfOURbXrByth/3ceksta67fIagCPCIEFHJzd74bOu6eqivvnj7vUXF/lmclLwWTR5JI1X6PyeOFnfHHT6Blf/MU+KQtbT55X/tnxg+XvnLem53OPXVj9aU8WUmz+TVvhykwqCC0Ah4rAAjDbmE/+eoAsMinVMkuxlFlyX3zNzonF1+yon3XRxpE/GSiHa1+1pueCJy+qfePMhZVrFlRiLklJCnLJTInKBvBwEFgA5pqQXCE16yt1lcwls9xV2l5Pp/3tT3af9rdp9+jJiyrf+OWhrv9+3vKuzzx+YXWkNX4ZcpdFU0FoATgYzooCMJeFwhULVzBJJZN3lUPRXY1d1+yYeM7f/HTXvz3jks0/O/cbm9/9ox31dY3kKWvGVUx+z0gZADwAgQUALd5cdxVzd+8qWd5VCj6RtPLiO8fedsZX77zmeZdv+fCHb9xzxkieitA849ByTn4AcAAEFgA8kBWurHApmrxWslTLrPviTaOve/33t//PE76++YJ/uXHPieOFe2YqCleWnJMgANyLwAKAB2cuWXPNlry7HPJayfqv2Vl/yeu+v+1HT/2fuz5yyeax46IpDyZPrsi1KwFIBBYAPFyWN0eqvJZZ6iqF8ve31V97zqWbL/2Vy7e8+4pt4wOhtfi9YNd/YM7jmwAAHBpLrlC4VCtZnpkt+sKtI2977qVbfvBn1+x88d48eTQlRrOAuY3AAoBHKLkySam7GtK+3I/6y2t3feYZ/7P5c5+/fWQ9o1nA3MYTHwAeBW9dy9BM3l2O6Xvbxp//km9tveI1V9z9O9vrhaIpNS8sDWAuIbAAoD0sdw9d5ZiXgs3/+E17P/j4i++68Dt3j6+KzR3gA2caAnMHgQUAbVS4Z0lKXZWQbtzbeOGzLtty+buv2/Ws8cJTMKkgsoA5gcACgPYLhSvUMsvrha88/6qdX3zFFVvfsWWsCLG5nQPfe4FZjic5ABwmyZWZlLqqwT5/68g7n3bJXRf8YHt9YTCl3J1rwQKzGIEFAIeRN0ez1F0O+fW7Jl74wm9u/fq/3rTn+MwsL1zBWf0OzEoEFgAcfpa7sq5SKLaM5af81ne3ff39G4afGk3JTDF1+ugAtB2BBQBTpHDFUrSiWgpH/N4Pt3/1/94w/HJJRZAiA1nA7EJgAcAUSq4oKVWyUH3zj3Z87DXf3fa6XROpsOZUImcYArMEgQUAU8yb33tTV8nix28c/ueXf/vu3xnJU4qmwHQhMDsQWADQAa3F79ZTjfa1O0Y++Pxvbn3D7uZIVmRDUmDmI7AAoHOskZS6yiH9zx2j//jSb299/WieCpcHJ7KAGY3AAoDOCoXLusvBvr5p5EP/fOPe86JZwUWigZmNJzAAdJ4VLtXK0f/oyu3/8v4Nw8/NgorClXF2ITAzEVgAMA24ZC55JQuV3/vB9v/4wM+HHxtNeeusQwAzDIEFANPE5NmFpVLof+MPd3ziyh31FdHEdCEwA/GkBYBpxKUQTUUp2NrnXbbl4z/ZNdEdTSKygJmFJywATDPJFbNgjbv25U85/7qdfzOWe1JzChHADEFgAcA0VLiXuquh+O9f7Hv9G360/bdaU4WsxwJmCAILAKapIil0VWP6fzft+Zt/v2XvL2WmonDn+zYwA/BEBYBpavLMwnIM/X981Y4PXbOz3hPNxE7vwPRHYAHANNZcj6V091hxxjuu2/VOl1iPBcwABBYATHOFy2rlUHxp0+gb/+H64acFU3LWYwHTGoEFANOfyaXMVPrrn+3+m5v3NgYlKbF1AzBt8eQEgBkgSbEUrdg2Vpzy5it3vDmYCjPWYgHTFYEFADNE4YrVkvmXN43+wYUb951kUsGCd2B6IrAAYAYJUjJT7Z3X7v7LfY0UzWRJRBYw3RBYADCDFK5QzazYMDzxy/+4YfhXTEpiLRYw7fCkBICZxdylcrDSu3+y+613jOY1MyWmCoHphcACgBnGpRiDUj330//yp7tfbpKLaUJgWiGwAGAGSi5lwfzC2/b98YbhxkAwOaNYwPRBYAHADOSSVTPzHSPFuo/ctOeVyeWJ6xQC0wZPRgCYmSxP7uVK0Cdu3vsbG0fy/ixYYvNRYHrgiQgAM5RLMTMVO8aLk//vDcPnSHJjkhCYFggsAJjBkstiKeg/b9v7e/saKbQWvAPoMAILAGYwl6wUpD319Jh/v2Xv0yR54c6FoIEOI7AAYGazIBWNwu0zG0fOGy9c0YxhLKDDCCwAmOGSy6rloGu3jf/y97aPr5NUJEaxgI4isABghnMpRCnfV/jij96455zkUjRjEAvoIAILAGaB3BViFvybd9dfOpE8qrkXKecUAh1CYAHA7BBKJrtrLD/zc7fvO94lOWNYQMcQWAAwSwRTUqHwtbvGXmySktjZHegUnnwAMEu45CFIV2wbf/ot+xoxmiWuTwh0BoEFALOEu6ySmTbuyY++asfEKSZ5wSgW0BE88QBglnApRLM8Fanvp7vrj5OkIC6eA3QCgQUAs0jhrpAFXbJ57PF7GilEU87ZhMDUI7AAYBZJrljNTN/bOv6EbePFPKk5ddjp4wLmGgILAGYXcylZtCMu2zp2ZKcPBpirCCwAmIXcpW9uHX9ip48DmKsILACYjVz64fbmQncAU4/AAoBZxiWFII3mfsJNexqlYPLEru7AlCKwAGC2cVk00548DW4azY9Wc8aQ7/fAFOIJBwCzjEsqR9O+0bz/m1vH10tScudMQmAKEVgAMPuYSXlKChPuR7Xu4/s9MIV4wgHALJTcXaWgH26rrxhuFMqCubMOC5gyBBYAzE4mk0bytDy5okm52NEdmDIEFgDMQt5a6L5lrFiyeyL1SRKXzAGmDoEFALNQkqwapY17GovvGiv6pebidwBTg8ACgNlpcrRqobt673cfgMOMwAKA2ckkFZLKXZl1dfpggLmGwAKAWcoll0k/3lnvlxi+AqYSgQUAs5RLJjNduaO+UJLMWIYFTBUCCwBmua7Mejp9DMBcQ2ABwCyXXN2dPgZgriGwAGD2633oNwHQTgQWAMx+rL0CphiBBQAA0GYEFgAAQJsRWAAw+7EFFjDFCCwAmP1GO30AwFxDYAHALGfScKePAZhrCCwAmOUa7oxgAVOMwAKAWcokl7uW1rKdkuTOWixgqhBYADBLmWRy6YmLarslNsMCphKBBQCzk0uKkvJo2tfpgwHmGgILAGanyQGr7a57AotBLGCKEFgAMAsFSeOFtLq/dPfSrmyPxGZYwFQisABgFjJTKty1pBY395Vst9Ra9A5gShBYADCLBdOd0SxXcz0WgQVMEQILAGahYCblSScNVm7rKwUV7sGYIwSmDIEFALOPS8rk8nmVeIskJWf0CphKBBYAzEKN5CpX496TBso/lyQzAguYSgQWAMwyJnnhUl8p7FrWFa9v3mep08cFzCUEFgDMMmZSXrgGy+GmMxZUx5IrREawgClFYAHAbGTyJy+uXhFY2A50BIEFALOQSXbiQPmKTh8HMFcRWAAwu7ik4K7dZ8yv/LTTBwPMVQQWAMwiwZTquesxCyvfOXFeZbvEGYRAJxBYADCLBJOnwnXqvMp3SkGN5MrEDu7AlCOwAGCWaG3PELNoo884out7mZkKdy7yDHQAgQUAs4SZUr1wW9aT3XTsQOkqSRbNik4fFzAXEVgAMEuYZEruy7uz76ztKY0k9xhYfwV0BIEFALOEu4Kb2ctX91wQTHJ2bwc6Juv0AQAA2iI1XDbUlf3s2Ud0/UBqnlHY6YMC5ipGsABgFogmz/NkzxyqfXpZd9aQxCbuQAcRWAAw8yWZheDa9+JV3V91Sbk7fQV0EIEFADNcNKWxicJOWVS9/MwF1Z+aFDh7EOgs1mABD4mTsKCH+DKYfKXt98sUDiCZRSXpSYuqnxgoh7yRPJaYIAQ6isACDiZEKZbk0eR0FpobIdzv9yaZNRvLk5QKWUpSymVyuYXm6w9fcKV6kayvFm/4g2P7v+iSssDoFdBpBBZwEANf/oAWXfBZ9fR0KyVOyJqzLChUK/IQpWpNXu1W0T2oie4FUl+figXLNNG3WF7uUlHtkVe7VHT3q7Aoa9Sbt1TsF2StX9sgmlRvyF5/bN+HjujKxr25uJ0vVqDDCCzgIOLencq2b1I23kNgocmb/8skVSaHNT0plMtS34Am+peoGFysxvylyuctVb5kjRpHrFOja56UCim1RrmKvDniZSbZI14Om5IrVKJuf/Wa3s+4N8sqMjsIdByBBRyEx5K8VGneCCw8wL0lU7jLh/co7typ7ObrVC0aslJJRd98FX3zlRav0MTakzW26mRNDCxV6upVKlVlE80RLpkOObQyMx+ZKPQrq3r+dXVPtk2mLEh5mz9IAI8AgQUclEu+3w24j/t+TViMUszkZs1bSrLREWV7dkt33KTy1d9UT4zyxcs0duRpqq86SRMrjlN90Wp5kWSN8eb6LflDrtsyyRvuoVoKd/yfo3o/VolmhXsRjeErYDogsACgXdzVjPLmiyZJMcrj5LfaVqhv3qSujTequ/QZFYtXqbH8aI2e8CSNrXuM8q5ByUw2MS5LRXPd1wEEk483UnjWsu5/PmtJbVNyhWhcGgeYLggsADicJqNrf1kmL/Urucu2bFL1rltVufpSDQwu0tjJZ2nkuKdoYvkxyqv9CuP7mmu1Js9WbP4uFS7rK8df/OnxAx8OZpac/USA6YTAAoCp5i550RzhKleVTM3F7zvvVtfXPqaub31WE+tP0/hJZ2nf8U9Vo9ovyxuyvC5Z8CwG7RvN7S2nznvv4xZVdxbukY1FgemFwAKATvJ07wBXyORdvVJyla++XJWffU/dR3xKo2c+T/tOeLoag0MKjfE0NjERVw6Uf/TqNb0fSy6TmBoEphsulQMA04Y3R7IkeVefUigp3vEL9X3mb7T4n39bA5d8VNno7pjK3fV3nzzvj47qy/LkHqIxPQhMNwQWAEw73twzSy4vlZWq3bItm9T/3/+YFrz/dVrxi4uvO2Gg8UPJUhasSO58LwemGZ6UADCduTenEStV5bEWaj7qR9TuPPWPL77oh5+89sqXbBnZq2CW3D0kd/ZoAKYJAgsAZoKiUAim7nOebtn8hXHvvpHj/vrbl1zwxq9+/iv/84sbTzWzFMw893TgfR0ATCkCCwCmuxDk9Ql1nXmqauvXysfGFWJIC7u606ZdO859+/9++Tvvuvzr79i4d7g/s1C4e3RGs4COIrAAYDoLQV6vq7Riqfqe8jh5nk9+5w55SlaOWVHNstp/XX/tO3/zCxd8/YLrr32ymRVm5qzNAjqHJx8ATFdmzanBWk395z5NoaurdZbhPYNTltxjcveBaq0YHR19zPu+dcnFf/Gt/33b5n17y8EsFZ74Pg90AE88AJjGvJGr92lPVHXNCnm9fs9u7vdjRUoxxpj3lUq1z/306nf/zpcv+tL377x9fbSQEgvggSlHYAHAdBSC0ti4uk47ST2PPVVpvC6Fg3/LdvescPe+Sq3YMjx89pu/+vnL/vlH331BaC6ANyILmDoEFgBMN611V5U1K9V/zlOl4pD2EbXCUyxnMY/S0Ed+9J3P/vV3Ln371pG9HsycKUNgavBEA4DpxEzeaCgODmjgV5+p0FWTp+LBpgYfVHLPgoU0WKn5p6/90Z+/6eL//tide4f7ooWUJ7ZyAA43AgsApovJRe3lsgZ+9RyVFi+S1xuHHFeTXB5yT5pX6ypu2b71vLd87Qtf/PamW5dlIRTJncgCDiMCCwCmA1PzDEEz9T/3GaoeuUY+Pi6FR71syvKUYlepkt+6c/uT3/r1L/7vZbfdckIwKwpPWRuOHMABEFgA0GlmkkteFOo75yx1nXJc84zBh1jUfigKT1k1ywpL6eg/u+RLX7/01pvOjBbyxHQhcFgQWADQSa3pP59oqO/sJ6vncafJ6xOPeFrwYJJ7zGIszDX0tku+8vnLNt7yxMB0IXBYEFgA0CmthvKJCfWe9QT1PPFM+URD+20k2nbJPWYhJLkPve1/v/yVyzbe8rRgVhSJ6UKgnQgsAOgEMyndG1d9T3+CVBSt1x3eh07uoRRj8pR6/+x/v3zBpbfd9JgYQs5IFtA+BBYATDUzKaXmmqtnnqW+pz1BnheSH9J+V49KK7IKpbTg7Zd89QuX33bzqcGM6UKgTQgsAJhKZvLWSFX/c89W75PObMWVDsu6q4NJ7rEUY3L3xX96yVcu+sbGW1a3IoufDcCjxJMIAKZKCPI8V6iUNfiCZ6nnMafKJyaar+vQRWySeyiHUHhRrHn35V+/6JbhXYubO74TWcCjwRMIAKZCCPLxccXBAc17xfNVO/n4ZlxN8ajVgRTusZxlRX1i4pfe+eMr3n9XfdSCSS6uXQg8UgQWABxOZpJJaXRMlXWrNf+8F6qydlVzE9FpEFeTUkqxXCkXN0yMveidP/nRX0qWvGPjasDMR2ABwOESglQU8olcPY8/XfNe8QKVFsyTj423dRPRtnBX6u6OvdVacd3u7W/94E0/fVVoRlY2dUvvgdljmj3DAWCWCCYfr8uqVQ3+6jkaeO7ZsizKG/m0jCuVSrK+XrknK4XoF95x899ffvddp5iUO+uxgEPGkwYA2ikEyV0+Xld5zUrNf82L1f2YU5sbiLauNTjtuMsG+2Xlktw9RLOUXAv+esPVH91eH+8NxnQhcKgILABolxCa1xCMUb1nPUHzz3uRykuXKI211ltNx7hKSeqqyfp6m7+X5FIshVDsbtR/6fyf/vCvxlNhkmIisoCHjcACgEcrNDcOTWPjKq9eofnnvUh9Zz9FFkNz5CpM4y4JQTZ/3gOmLZN7qMUsv3LXttd+7o5fPM+kXEwVAg8b154CgEfKrDkdOFZXGOhV/+PPUM/pJ8tq1eZZgiFMz1GrSSnJFsyTdVWl9ICl7ObuoRpj+Ogvrv/7E/vnffeE/vnbXG4mY9078BD41wgAHKrWdJ/X65KZuk4/SQt+/WXqe/JjpSyTj9en30L2+0sudXdJAwNSOvCbuBSihTSWF6v/9Rc3/NVYkbs7dQU8HNP8OwAATCOtaPKJCXmeq3L0kZr3yhdo8AXPUmnh/OZaq+TTP67cpSzKFs5Xc0fRB0+m5G5dWVZcsX3rqz+58aZnBbMkiesVAg+BKUIAOJj9pvjS2LhCFlVZs0rdZ56q6vq1zTPv6q3L3Uz3sJpk1oyrcrkZVwefxTR3t1qM4bN33PyeZw+t/NaSWtc+pgqBg5sh3w0AYIqZ7bdRaEOeF6odc6QGXvw8zX/1i1Q74WhJasbVdD1D8EAmt2To7TnoyNV9/ogUshDSromJkz94809/x1qXpj68BwrMbIxgAcD+Wpe28XpDnpJiX4+qq1eo+4xTVF6+VFYty+sTMy+spOY2DL09svmDDzuuJjVHsUrpG3ff8dZn71h54ZnzF9+a3ENryhDA/RBYAOa2yUhKSUpJXhSSu0rLlqq6fo2qxx6l8hFDkjdfd89lbmZSWJmkIkm1msKiBa07DjGwJMvM0khKgxfdcctbTxtc+Ns2kz4HwBQjsADMPZNR5d6c/isKhUpZoadblXWrVTvuKJWWDSn29TWnCOv1ZpNMThvONMmlcllhyUIpxkMevZqUewq9pbJ/d/uWV1+8+faPPGfpqquTewxmRZuPGJjxCCwAs5Pd8797uTejqpHL81xWLqk0tEilocWqrFmhypFrFLu7pBjkeSEfG2tF1QweqXGXYpQtXiiVy/fs1v4ImbsnyaqfvP2mP3ra4qUv68pKTBECB0BgAZi59o+o1u+bA1MuFUmeiubUWHNHJ1kMskpF5bVDqqxYqtLSJSotWqDYWpM0uZhded58nzNxtGp/ruZO7YsWyrpqjzauJt9lqMbot43sfeGX7tr4Dy9Zse6HRev6hY/+gIHZg8ACDmZyWmimLWae7VojUUqSe9H6fZKnJBVJVsoUajWFWlWxu0txoE/Z0GKVly5ReWixrFKWlcuyEOSNhnx0TFJrpOpAI18zlUm2cIGst7stcbXfu02FPPvuji1vfsGyNS8zFmMBD0BgAQfheWqOajSaZ5RhGmhtkhnKZVm5pFCrySoVxZ4uhZ5uxd4exb4exd5ehb4exXkDirWqPO0XYSk1Nwt1n7nrqh6Ke3Pkqr+3rXElSYW79cSS/2jntnN/vGv7SWfMX3Rt4SlGC6zFAloILOAg+s5+khYvqKm7UlF64LXa0CnBZCHIQmjuSB6jLMtkpUxWKkmy5tmAqZDnhdLo2L0jkPv/OlsHXtybI1cDfW2Pq5YQTHk9pb7P3HHLK86Yv+jaYMHZHAu4F4EFHETs61Vp8UKVSmWlR3jmFdrsnh0GvPnf5HTh5OL1icZ+b2uzd4TqQCZH5BYukA32H664kiQV7rEvy/w72za/+se7tv3dqYMLt6bWuZmH7UGBGYTAAg7C89Yu3rLmD3JMU3bf9XJzldnhHrm6z6O5WTJp0Vc33/7CUwcXflDuJuPyOYBEYAEHxw9tzATurbMF58v6piSuWo8rBTO/etf212yrj/3LwkotZ5oQaJoj4+YAMEtN7nO1ZOHUxpUkl1slRLt9bN+J39625YmSPHniH+6ACCwAmLmSS6WSwtBiWU/PlMZVi5kpz1MqXze849kuaXKxOzDXEVgAMBOlJKtVFJYukWrVTsRV8zDcQ09W1g93bj13y9jofJMKd+dnC+Y8ngQAMNOkJPX2yI5YIpVKj/jagu3gUigFS1vGxtZfcvcdp7maw1rAXEdgAcBMMbklxfxB2ZLFze0npsGEXHJXJUb9dHjnc0kroInAAoCZ4J7F7IsU5s+TTa/tpiyY6epd28/dUR8vW3N1GDCnEVgAMN2lJFWrsqVDsr7eaTFqtT+XVDLTWJEv/c72zY+VmmuzOnxYQEfxBACA6ch0z5SgDQ4oLF0iq5Q7tpj9IVg0K/bkE6Vrd+98mktyEViY29ivBACmoyJJ5ZJs/nxZb3fzvmk2crW/JHktlnT76N7Thxv1OFCqFMndAju7Y47iXxgAMJ1MLmTv61VYeoSsr+fe+6Yxdw+VEHTryJ7jto6PrVRrf/lOHxfQKXzxA8B0kZJUKskWL1JYskgqZdN1SvABXAols7S1PrbstpG9a1p3c1Ih5iwCCwA6rRVRNtgvW3aErL93Roxa3V8hpe6Y2VW7tp0sSdFsZtQhcBiwBgsAOmUyoLq7ZPMGZbVq8+UZMmp1f+4egpnuHBs5teFJJQsz8wMB2oDAAoCpNjk6VanIBgeai9jDzN89yiXLLOjne3f/UpBKkhqdPiagU5giBICp4t4cnSqXZYsWKExOB0ozPq5azMzUSGnV1bt2LJQkd2cdFuYkRrAA4HBLSTKTyiWpv0+ht0fKsnuDaxYxSYV7eev46HGS7vLmRz4r6hE4FAQWABwu7s20qNVkvd2yWRxWk0xS7km3juxdL+l/O308QKcQWKWmvY4AACAASURBVADQDmb7hZNJMUrdVVlfr6xaaYZVSrM2rCYFszSRinDj3t3rpOb2DZJm9wcNHACBBQCPlntz5/UQmqNVXTWpp7t5aZt7Xl80I2z286AgM61J7myEhTmLwAKAh2OyFFz3ngVo1jz7r1yR9dSacVWpSFlsLlrffx+ruRFXSi6VQ9AdYyPzN4+PammtO3HJHMxFBBYAHMxkJE2e5Rdjc7f1UkmqVaWumqyUNUevzJpTgPmcGa06IDMpd+8fL/J+ScNiR3fMQQQWcDDu945EzLBdtdEGZlKp1AyqciaVy80LMJfKzcvYSPd+bez/NTKH40qtmIpmvVkI83RvYPEEwpxCYAEHU65IPV3NH7IE1uxlJoUoxSCLsTnFl2WyrDUyFezeX12Sz/7F6o+GyTReFLXRPO+95y5gjiGwgIOwwX6F5UcoZATW7Of3+eW+r2qNTuVpro9OPSSXWyVEbRzZ23XDnl29x/QNKskVaCzMMQQWcDCTp92nRGCBuDoEwawWzHpaL/KJw5zDpXIAAIdDED9jMIfxxQ8AaCfTvRuL9hzsDYHZjMACALTb5Hx6uaNHAXQQgQUAOFxYuIg5i8ACAABoMwILAHC4MIKFOYvAAgC0k0uKrd/v7eSBAJ1EYAEADguTik4fA9ApBBYAoO2S+3juPtp6kalCzDkEFgCgrZJcXVk21lcq7+v0sQCdQmABANrGZF5PhZZ39Yys7+3fI4nrEGJOIrAAAG1lkpL7aOE+3LqLKULMOQQWAKCd3CQV7nuT+y41e4vAwpxDYAEA2iaYvJ6Sltd6di+t9TSSewxmBBbmHAILANBOltzVnWW3VWNk6ApzFoEFAGinIEnJ/ebWyzQW5iQCCwDQNoW7VWOmJywYukmSjMDCHEVgAQDayqQUzX7aepHAwpxEYAEA2sXdXaUQtj12weJNkhSMPbAwNxFYAIB28SSpLytfO1iujE/e18kDAjqFwAIAtEUwS42U/KSB+VdFsySxhTvmLgILANAWJqnhhZ0yuOBKkym58zMGcxZf/ACAdkgmZYX77qFq102S5EwPYg4jsAAAj1ow8/GUtK67//rlXd23SGzRgLmNwAIAPGomeb0otKKr57p55epokmfGJXIwhxFYAIBHy92VBVM6ff6iy2sxU/LmRZ+BuYrAAgA8arlcfVl517F9g5dKUpCKTh8T0EkEFgDgUTHJi5S8t1T6/rF987ZJMjYYxVxHYAEAHhUz88Ldzlmy4sJyCObsfwUQWACAR8VNCrmn7afNW/gttS6XA8x1BBYA4BELZsVIntvJAwsuO7p3cKMk4+xBgMACADwKJgWXp8cvWPyVrizz5B7Z/wogsAAAj5BJqZFS6CuV73js/CVfbN3N2YOACCwAwCNkZppIhc6Yt+iLx/QN7kruMTA9CEgisAAAj5C7h2ghnTu04iOSZKbU6WMCpgsCCwBwyEzKG560qrv3y6cMLLiheRe7MwCTCCwAwKHyaCHsy/P8qYuW/mt3ViqSe2BxO3AvAgsAcEhMlsZSHlZ29Vx57pIVX2ttLMr0ILAfAgsAcEjMFBop6ZcXL//HpV3djeRuLG4H7ovAAgAcilSkZIOlytWvWnXk5yUpmjF6BdwPgQUAeLg8mvmevOEvXr7mLwdKlQmXYqcPCpiOCCwAwMNiZmkiFXFZrfs7zxpa9RVv7uLO1CBwAAQWAODhcLlC4e6/ve64vxiqdY25uwUxPQgcCIEFAHhIJvN6ym1978Dnf3nxsq+7FIIZl8UBHgSBBQB4KMlMFsz2vHLlUX9WCVFseQUcHIEFADiozILvmqjb0xcv+9unLV7688I9iqlB4KAILADAgzJZmkgpDlW7rv7N1cf8fXMgS4mL4gAHR2ABAB6MBzPtyycav7Z6/ZuWd/WMJHcFsako8FAILADAAUWzYrhRD2cvWf53L16+7ltJHgObigIPC4EFAHgAk4o8peyIatf3fnPNMe9x9yDneoPAw0VgAQDuz80sTKS05w/Wn/w7R/b0j7gkrjcIPHwEFgBgfx6aU4P2K0tX//4TFw1d4+6BqUHg0BBYAIB7BFkxXuTZExYM/evr1x33byZj0yvgESCwAACSpCAV9VRkg+XK9/9g/cm/318qm0vJmBoEDhmBBQCQmRVJiuUQ73jP8We8ckVXz94kt8DoFfCIEFgAMMeZlEwKI3m+67fWHPOSUwcX3lK4Ry7kDDxyBBYAzG0uyUYajeK1a4553StWHvnd5B65kDPw6BBYADB3pWjm9VToN9Yc/XuvXXvsRck9mlnBpXCAR4fAAoC5yTML2t2oh9PnLTr/t9Yc+yGXMplxnUGgDbJOHwAAYMqlaKbdjXo4Y97i89913OnvseY/uHP+1Q20B88lAJhbPJqFXRP1cMa8Re/8mxMf++7BciW65IxcAe3DCBYAzBEmJUk2VuTpCQuGzn/PCWf8RW+pFFwqgpFXQDsRWAAwBwSpkBRHijz/9dVH/955q9Z/qCtmMUmJqQyg/QgsAJjlTEpJiiN5Y99r1xz7G69de+yFkqI344qNRIHDgMACgFksmhXjRRFLIdzypqNOfPUrVx51hbtHNysYuQIOHwILAGYnD2ZprMjjvHL1m+887rRfO33eoluTFI24Ag47AgsAZhmTCpPFnRP1+OSFQx/53XUnvOXI3v6R5J4Fs7zTxwfMBQQWAMwi0axoJI8Nz4d/d93xb3nx8rX/1lcqq3APkbgCpgyBBQCzgDU3Dw27GxNxaa37+29Yd/z/OXvJ8h9LikmeonHhZmAqEVgAMLN5MCsaKWXDeaM4a+ER733t2mP/an3vwL6iddHmIPa4AqYagQUAM5O3Ng6No0WeLaxUf/D6Fcf98UuXr7s8mik1pwSLTh8kMFcRWAAws3gwS+4e66mIybXjBcvW/P2rVh71d0O1rrqkkNw9MCUIdBSBBQAzR8osaLRoRMnyI3v7L3zZ8iPfdc7QihslKbmHYJa47A3QeQQWAExvk6NRIbmHbfUxHd8/79IXL1/7vnOHVny9HKJcipInRq2A6YPAAoBpqrVnVTZeFLFwV39W+uHr1x37vhcvW/df8yvVJCm4XCYrxEJ2YFohsABg+nCTXDKZKYwVeSZJiytd337SwqH3v2bV+i/Mr1QnJKlwj9GsMMIKmJYILADovMl9qmIjpdBIhVzKj+0bvPD5y1ZfcNrgwi8N1bolSS6PciXOEASmNwILADrDTXIzc3ePe/NGcHf1lcq3Pnb+4s+eO7Ty46fPW/Sz7iyTJCvcLZglkxUMWgHTH4EFAFMjBTM3SS7FPCUr3G0iFerJSlvOnLf40tPnLbz45IEFnz9xYP7o5B8q3DOTCnZiB2YWAgsADo/JEaoUmiNQcbwoVE+FSmbem5W3r+zu+eZTFy276DHzF/1oea371mpsfktO7q2dFsy5fiAwMxFYwEPz/W6Y45qzc+aTXw5mNvl1Ye4yySfvsIYnaxQp1JujVFvXdPduWNbVc+3a7r7Lzlq89LJ1Pf3D+73rkHsKQVaw3QIw8xFYwEFEM2UWlFlQoq/mOjOTJlJS4YVNnr2Xp0J5avZ3FoKiTCFYSq6Nq7v7rj2md+DHq7v7rj2yt//mld29GxZVavvHk7lk7i4z88wCo1XALEFgAQexpzERttZHracoZ8kJrLnMpEbuXgxVa/XBUm08yccKT2ODpcqe+ZXqtnpR3Hbq4MIbl1RrN/WVyhtOHliwrRazsWqM9xmNSu6ZtzYPtXunETv1YQE4TAgs4CCeu3T1Px3TN+8rpRAazgjWXGYm29dIqXFUb//IgnJ1X+4+3PC0d1mte09fqXywPxuSe/DWxZkDa6qAOYHAAg7ijHmLrjpj3qKrOn0cmNZC4R50zyahku4dlZqMKtZUAXMMgQUcROEeXB46fRyYFlySTKb7hVRiCwUA90dgAQfR/MHJD08AwKHhX+YAAABtRmABAAC0GYEFAADQZgQWAABAmxFYAAAAbUZgAQAAtBmBBQAA0GYEFgAAQJsRWAAAAG1GYAEAALQZgQUAANBmBBYAAECbEVgAAABtRmABAAC0GYEFAADQZgQWAABAmxFYAAAAbUZgAQAAtBmBBQAA0GYEFgAAQJsRWAAAAG1GYAEAALQZgQUAANBmBBYAAECbEVgAAABtRmABAAC0GYEFAADQZgQWAABAmxFYAAAAbUZgAQAAtBmBBQAA0GYEFgAAQJsRWAAAAG1GYAEAALQZgQUAANBmBBYAAECbZZ0+AACHLqVkRVFkZia5S2aKMeZm5p0+NgAAgQXMSCEEDyE0On0cAIADI7CAGSSlFEII6aYbb1px2aWXPre7p1t5nqtcLjee/vSnf3HhokWb3d0YyQKAziKwgBlkMrC+e8UVJ77u9b/9/oWD8zQ6Oqr+/j59/gtf2NAKrGBmRaePFQDmMgILmIG6urrGF/QP1oeGhjQ2Nma9fb0j5XJ5otPHNYvZAe5jlBDAgyKwgBkopRQajUa50Wio0WhYo9GYcPcDRQDag5gCcEgILAA4gMm1bOPj4+U3vfGNf/T9733vhN6e3vHdu3fXnvjkJ337Qx/+8PvzPA9ZlqVOHyuA6YfAAoCDcPdsx/btz77zjjsf09/frx07dmjH9h1lSe9Xcy9BAgvAA7DRKAA8hFKpNF6pVFK5XK5XKpVUKpXGO31MAKY3AgsAHoK7m7uH/W6sdwNwUAQWAABAmxFYAAAAbcYid2AWSymZJPOULHlzp4EQgszMzSyZtXemy93Vmj6zlJL5YX5Md1dKyaz5Ti2lpMnHNDO1HiuFELzdH2s7pZQk9+Ctj2FSDEFq7crv7h5DcE3jjwPAvQgsYBZxd/OUrGju5m4hhEKSKwTFB765FUVhrfh4VPs8tdYoWQjBWrvIewgHHCAPKSW1Hu+QomfyMfZ/OcboMcak1j5VD/KY93nch/OxppRCSimYmRdFEe+/5srdrSiKWBRFPMj78xDCgwblPTHqshCD1DobMcYD/E3dKxZFId37ufMQAnt0AdMQgQXMAq0f1tHMPGZZPnn/hg0buhoTE6tvu23jgptuvLHHTMWJJ520Z968eXeuXbt2Y19//+QP55BSOuQf1pOPG0IozMzdXddde21PjHHtNddcs3Db3XdXsizLH/OYM4dL5dKdy5Yv37Rw4cLJP24pJQshPKxtDg4UR3v27NGGG24YrFQq8yX133zzzd13bNrUI5l6enryk046cadLm4497rit3d3dk8ccJRUHi7sQQpo8rp6enr1ZluWTI2PurizLGjHGIsb4iC5J1Lrk0eTH43fddZc2b75r+ejIyNBPrvvJYKORx1IpS4957GP3xBD2SdqZ5/mO004/fewhAgzANEFgATOcuyvGzMvl8vC+ffvit7/1raM/e9FFz7pz051P27lzx6pG3hjcvWt3947t28uS+ZKhJfWurq7hgYGBuxcuWnjx77zhDf/21LPO+kUIQe6uhzuq1NqIU2ZW3HD99f1f/cpXn/vVr3zlFbt27lwraXDz5s09I/tGYgghLVu+bLxUKu2tVCubTznl1Mte9JIXf+xxj3/89dVq1VvXTnzQyJoc6dm4ceOCH3zve2t27Nhx8g++/4P1O3fuXD86OrJ0293bemOMXTJVd+7YUR7ePVyWmcrlchpasmRUZsPz5s3b9MQnP+kzv/Fbv/mfq1at3iUpSrpPHLViz++6886+t/3pn/3J1q1bV5TLpXqRF+XbNt52bLVaVZ7nsbu7W9dec83jnvfs5/yb3DPdL/rMzFNRZOVKZdvb33H+n5x08sn1yfctSUVRhBhjGh0d1f987WsnXPzVr7702muvO3tsdHTJxMRE75YtW7om3375iuX1YKEuaSylNLp06dI95XJ5Y4jxpmee88ybQwg/funLX35tb29vOpS/OwCHH4EFzHBmJrnbRz/yLy/f8PMNx97ws+ufM7kWqVKpyMxUKpV8+YoVLsnq9XppeHi4Z8eOHUtvvummU77zrW//7kte9rL3vPFNv/d3a9au9dQcXjnoY06us6rX6+nDH/zQi9//T//0nvHx8SPdXZVyRRZMg4ODPn/+fEmK9Xq9PDo62tfY3li66fZNp33ly19+0wknnPBvf/HXf/WOk0855e5UpBhieMBo0ORu6sPDw7WnP+Wp352YmFgnSUVRyCTFLFOpVFJzcMlVq3V5X19zVK5IKewbGR2QfGDXrl0rb7zxxif81+c+97uv+bVfe/2b3/KWS0OM9w87k+Tj4+NdV1999Us33X77qkqlcs/nMcYodw9ZlmnPnj2rfviDH/y66YHX0DEzFUWhWrW2fXh4+O2S6pOvm4yrq668cs1b/+AP/+RnP/vZr8cYQwhBWZYphKChoaFkZnJ3jewb6ZGrR9YMzeuuu04ppdNM0lVXXql6vX7HM8899+Te3t4dk8d/KF87AA4fAguYwSbXIe3Zs6f7ogsvfGu5XFatq1ZkMSsklcbHxy2lpImJCavX6yZ3VWs1lUqlRlEUQZKFEHo//rGPvfeWW24e+vgnP/nmgYEBSynpwaYLJ+OqKIr0lje9+V2f+I//OH/RokWq1WopZlmeiqI8NjqqvXv33jOcEkJQd3e3enp68tYi7tJVV13127923qsf97H/+I8XnXTKyTfuP8pzIOVyuV4ulyfMLJpZHB8fV0pJrTVJMjONj4/b8PCwpZRUKVdUqVaVZbGRZVmQpPHx+lF//s4//0JvX99zX/f61192oEvdxBh9YGBgdGTfvqJSqXjruo/WOmFA7q5SqeRdXV0HPFYzS0VRhGq1OloqlSY/Z3L3EGNM//LhDz/5fe99739M1CdW9PX1ubunGGPu7uXx8XHljcY9n4TJhfqeXKVSSYODg+7uhbvnrdirM2oFTE8EFjALhBCsv78/TynF+ng9bt+zPVqwiRUrV2yuVqu7Pfmoyz3LsurG225fMT4+tmBwcFCSPM9zX7JkSfGD7/3gTR98/we+//Z3nP+ZlFLQg42GuIIFK970xjf+6QWf/vT5RxxxRJHnuZtZNrx7d7lcLm8//sQTr1+8ePGd7n6XmfVPTEws/cl11625++6713d3dStmMQ0MDBTbt28/8dWvetUFn77wM2cdc+yxw0VRWIzxQI9b7NmzpzoyMlKWpJTS+Lp164Yr1cqYJx+Radzd6zFmvmLFitFqtep33nFHeePGjSt37dq1ure3V5I8xpjPnz+/56Mf+Zd/eO7znvekJUNDe1rroe6JrDzPtWXLlnDHHXfEarWaPKXQ19+vcrl8zxRqvV63u7dubRaQ3/dwzYKKIg/VWi3Ux5sbvrei1K+5+upl73vve/+1MdFYUavVGkVRZGYWdu7YWbag0TVr192eimK37r38TtnltVJWqm3ZsqXvtttu68myrJrFmFWrVY3X69HdcwGYdggsYJYYHR3NQgh7jzn2mIuf/eznfHPxksUbjlq//tae3t6tqShGXVKplFU33LBh/TcuueQZX/rCF9/aaDTmxRi90WiE3r5ev/DTnz7/Va8+7wurVq0an5ye2/8xWjFSfOzf/98TP/2fn3rHwoULU57nJinWx8fzc8495+9e+vKXferMxz7uur6+vvsc31VXXrnw0ku+ce4nP/GJt+/Zs2etJPX29jY2bdp0yt++733nf/ijH/39GGNoRYxLuufXGGP+q89//p+dcuopA7Wuri1FXuw++ZSTt3d1d+9NRbHHzEaT+0Qpy7R6zRpJ0vZt27Rhw4bl//X5z73wS//9xXflRdErKVaqlfzWW2896XOf/ewz3/DGN16o5tSaJqcLFy1atPsv//qvXrdv377+LMZGfWKi9omPf/zPb77p5uOr1WoxMjISjz7mmG//+m/8xl8UqSjFcL+F7iZ58hizOHL0MceMt45fZubvePvb3zw+Nr6uu7u7kVLKWltZ7HvBi174t2c/8xnfOPGkE39e5MW2/bZiyNy9u1wu92687bZ5t95662ClXFl41+a7Fv3sJz9Zlef5eK1Wm2i9LdODwHTSGrrmxo3bDLg1Go3M3XXBpz59dn9XTzp63ZG+ZsXKdOxR6/O3/uEfvm3DDRuGhoeH7QB/1lq3e+771H/+51OWDx2xc+3KVWntylXpyNVrfOniJf6hD3zgWa2pt7D/26eUlFIKm26/PTvt5FOuWLl0ma9btTo/as1aP2LRotF3nX/+c/K8Mfn2sdFoZI1GIzYajazIi2zy/Xzrm5cffexRR924atnytG7V6nz92nXF0MJFw9/77nePcvcHPO5+j/1Qnx9z91AURdb6PMXJ133oAx/4tdbx+rpVq/OVS5elc3757I81Go2H9Xl/5ctf9o2hhYv86HVHTiwcnOevfuWrPvlw/84mj/vGn/+86+h1R25evXxFWrdqdbFu1Wpfs3Ll7vf/0z89/kH+rg7093jPbWJiQo1GQ5P7jXHjxm163djJHZjBzMxTShazOPqq8867eP3R6zf39fWFoiiyPM9jaz8nmwyUlJK17i+97OUvv/zsZ5z9ttHR0cm9sIq80fDLLr30V1uLrO/z/SHP88zM0te+9rVnbNy48fRKpZJijNqxY4de9opX/Mn573rXl0KIWZ7n0d2LLMvyLMuKLMvyEENeFEVoNBrlJz7pyRte9erX/P7Y2JiZWUgpuZn1ffpTn3q+dOC9rFprkWKe56U8z7M8z2NRFPt/fJMfo4cQ8ta2CkWe50FSPO81r/n3wcHBqxuNxuT7s40bN55RFMUDRvHdXXmex0ajUcrzPNu7d29fY6JRmlzrZGaamJgo53mejY+PV1vHc6DbZOCZJN18000nFUUxaE1pbGxMT33qU//xDb/7u1dI2v/vS/v/fbVuoSiKmDcaMc/zLKVUKpVKIcsy3X+UEcD0QGABs4ONj49XvbkBpsUY8yzLitZ+Tr7/LcuyQlKeUrLf/8M/+Ey1Wt3ozQsYe7lSsS2bt5yy8bbbQgihSK04cHdlWeYj/7+9e4+Sq6oTPf7b+5x6dVV10ulOd7rzDkYDJiGBvHijKI8BxhFm0Os4Oo7CHWVw7lxFGPB68d41Cooj9yqiztxx5CGgCNfxAQENgoKQkBdEQoAkdBJCdx79THdX1Tl77/mjTiVNpyEBtiGY72etWkCoOqeqeq3Od+2zz94DA/Lgr351bhAEKa11VCqVgilTpz552ac//V3nnLbW2jAMR11jKggCG4ZhxVqrPnnpp342ZcqUlVEUKeeqk8afWL7i/ZVKRWTf/KOXSaItqoVbEASjfr69X4hSEoahdc7ZfD4vZ5511rIoimRYKE0plUqZ/b7I6utqgRiHYRiPjBillBv+/1/hUfsetIhIGIYtzrmUSHXOXKlUkgv+/M9/lcSTe6WfV/KwQRCYMJWqBqvWkXPOOkdbAYcrAgv4I1FbiPNgRjSUUqK1lpkzZ3YvXLTwkaGhoVo0SHd3d/POnTunKqWc7LtzTimlzPYXX2xcsWLFyfl8XpxzenBwUM4444yfTp02bai2BMGBzquUkjFjxsipp532k3K5LFprFwSB6uzsnPXrZctaRPZu8bPfa1/vV+Ock6ampi21WUpBEMjAwEDqlw880PhK5/MtGRHcex5rrbS2tpaT//eajzdsKyAAhyECCzgCJVvAhFoHdv5xx62pBVY6nZaOl7Y3rl+/forIy8JDi4j09fVN7NrddXQQBM4Yk6qrqzNz5x37oKtuk3NQK7Ino2VywoknPjF8RElrnVNKza69RR+fs3Z5zTmnK5VK3yhPORSFUtvGpyzJ4qbOOZdOp+WhXz80O/neguQSIcUE/JEgsIAjlLXWBUEgrW1t7XE1dEKllK1UolypVGoWEXH77rATEZEH7r9/WjqdDp1zxlor6XS6Mn369KeqTxV3MBM/axExecrknba6KFYQBIHbs2dPat26dW0iIu4AoVE7Tm3PwNojiTddGy1KRsdirbVNp9OVVzvmH1ppaGizcy4Sqd6Nmc/n5cZvfOOK//jJT44Ow7CSXCJ0zjntks9Sm2PmRuyFCODwxzINwJHLiYiUSqUuEamISFpEIqWUVkqNSZ6jhj+3Uqm8vfqnSqy1UiwWe04+5ZQeEdHJpckDhkCyZIGOomiPiOwWkfFaa1MqlYL2F9qbRUSsc2q0HfeSsAqSYxh5laUJ4jiW1atW1ZVKpdYwDMe2t7fP04F+XZfj3oja8g9z5817Np1Ov1gul2c450RrLXEcz/yHT//9Lx9ctuz2BQsWLJ1/3HGPHPPOdw7KsAn1Nc650BjjgiCwTGwHDn8EFnCEqm0avHDhwu5p06cP9PX1pXO5XO0yX3HE06ub0TjbOvwPrbWdvb29lWw2K865g7reFhsTp1IpqVQq/UrUUO34yeTy7Cu9LpkHpoMgMM5Z2dK+pb6rq6vpsd/9bmqpVJqitZ543733ThgaKjVrrSfFcdzctXt31hiT01pn4jjOJlvfHNLdkmsT3adMnRqfcuop/3LP3fdc19jYGEVRpMIwFBFpu+X7N3/mxz/80d+Na2zc0djY+PSiJYt/19raumbOscc+M3XKlN1N48fvrq+vj5Pnq5GLowI4/BBYwBGurq7O1VYpH+Zl0wdqIymPP/b4mDAMRapzrqRUKrV+8pJLvqt14A52ZMg5p9PpVLRr1+6GQqHQaIyRIAheNlI2Um0bHWOM+Y+f/P8Tl9679P0P3H//uwYHB+cGQVC9M08pGT7yo7WW2lY15XL5TZ0Ubq11IqL/6ctfvmnVqlWnb2nfck59fb0kkRQ3jR/vTBxnent7J+/etWvyhg0bzhLnal/GcwsWLHhq9tw5KxYtXvzoSSef/HBTU5NLjktoAYcpAgs4ctX+ku53zg2JSMOBXrCjc0chWSNLqeplwpaHfv3Qxa/5xM5JEASSjHzVLi06Y8x+86RqcfXk2idzn7/qH69bu2btX5dKpWJ9fb3UjxljAq1jY0xYKpVEiRJRsncRztqluGKxD9lioAAAFm5JREFUaJP5TYd09KomObc0jR/ff/Ntt170v6/54hUrV676VG9PzzgR0cViUcJUygZBEGcymdq+h0qqoTtz1apVMx955JELbvn+zYNTpkx56v0XXvCdT1566S11dXWxc467CYHDEIEFQMtB3vAycmNkkeoIWHVPnYOcFuSqdzE651Sy8bOqBVs+X9cjUt1tRmTvZUHZ0t5e97cXX3znpo0bz6sfM0ZyuVzFGBMODQ4Gvb290tDQsGPm22d2RVG8xznb09ra2tPa2tZtjHkpl8t1LjnxhI7771u6+Oc/+9nnstmsHbmI6qFQ+8xHH33Mnh/ceef/WLN69U33/Pju//LUk0+esXrNmqM7Ozqn5Qv5tFJK0um0JIuIioiYfD5vCoWCGGPq2tvbF19/3VcW3/XDH33wezd//6Ozjj66w1mnlGZeFnA4IbCAI1ftDsG8UmrkgpujDokYY0b+kVVK7RIRpw52xYPkaUqpvfPAnHNq7NixduHiRZ0i1REfkeolsCAIzFeuvfbK559//rzGxkYTx7GKoihtrTVLTlhy4/nve99Pp0+fse1tbzuqK47jPc65/gmtrXsvD9ZsfO75rDW2FjoH9149q0WWUkrmzZ+/fd78+V+rlMtfW7FixfTOzs63rVm9evqunTvfsXbt2qNf2v7SXGvtRBPHQRzHQaFYFK11nM3lVJDPS3t7+5kf+fCH//W+Bx64cFzDuIobZe9IAG8eAgs4QjlrRbSWjRs3pnbs6AwymezeZRlEJB7tNXOPndu79L6lopRycRxLsVh84Ze/fnBhOp0e9fmvhRKRQrE4KCKig8AmC5eaFcuXty371bKPFQoFG8exKKVUFEV7PnHJxR/8x6uv/vnIkEoOFcRRrESJq63RFUXRfqu2vxlqEZQsMxGkMxl70sknbxaRzRdceKE452RwcDAYGhqqW/bLX07eunXrKY8/9thZjz/2+ElRFDUXCgUXRZGqr6837S+0n3v7bbedfullly111mkCCzh8EFjAEco6J4GIdHR0NHZ3decnTpoksm+OUlfyz+GX6tzbZs7svvcX9+6dTK61rmtubu6WV1ku4XW/v+rolV29evVJ27ZubZs0ebIyxti+vj71njPf+80vXHPNz6W6h9/eVexr70MpFYep6q8355xWSh12SxskW+DEyaVS7ZzTQRA4pZTN5/Mmn8/3X/TBDz4tIk+LyHfu/fkvjvk/N3z9hvVPr39vOp221lqVTqXdww89fOGll1229M3+PABejoVGgSNUstGyDA4OTgrDMBCRSEQCpZTVWneN9ppyufySiIgkk9T37NkzZunSpY3DIkG9kcfwc4VhqJxzsnXr1qOyuZy21kZKqSCOotJZZ599n4ioKIokDMN45L6Ef4BJ3yMP6C3WlFIu2acxrq3tVfs+rLXKGqvjOE6dc+6fPP2Fa675iFLSKdXf3c5aq7q7u+f7ei8A/CGwgCNQsnmzjeNIVq5YMTNXVyfOOVepVKS1ra131qxZ20X2zYWqGTdu3MbaIZLjpMul0szkv/fuhfh6H8PfX3VV+bJsfO655uQyoCuVSmra9Oldxx9//Isi4g6096EnVqoLse41ypw1r2rfh9ba6UDbIAjiOI6DhYsWdSxctOiBUqkkSimTSqeku7trzMbnnw9qdyoCODwQWMARKBkhMbt37c6tfGLlqdlsVqy1yhgjxWJxR2Nj40aRfauQ1/7iXrR4cXu5XC5rrQOttR0YGAgef+zxk5OlG3z/PrEiImEYFpL/ro0imeRxqFREpL/2npRSYowZm9wBeai4MAxdEASqZcKE7XFcnfIWBIEMDgzqzs7OUJKRr0P5pgC8MgILOAJZa7VSSh64//75O3fuXBSGoRMRHVUqrr6+/tlJkyf3OueCkfOWGhsbX2xqalofx7FSSsVhGMqjv/3tOV1dXYFSqrZ+ky/KOSflUmkwCThRSkkURZlSqVTnnBM5yBGbV9nP72DerxWRskg1NLPZrGzcuLH47LPP6jAMzWv5zG9khMk554wx0t/XN0br6q9ua62kM2lXX19v5NBsXA3gIBFYwB+JA/3l7ZwTY4w21qbCMDR79uyRf/+3712TjF45qe4nqM5473vuzefzYq3dO5dJKWWdc8GMo47qOe1dpz/e19cnSimVLxTM+vXrl9x9113naK3jOI4zxhj1GlZ1r42c6eEBlIwS6VQqLXOOPbZjaGhIlFKSyWTctm1bx23YsGGGUkoba1/xd5i1VsVxHBhjQq21S6fTpeEzp5LP9mqX1ZwkvyOVSOeI992otW4dtiDoqOcfeWylVGCMSUVRFMZxHFhr9YG+r+RzhEopGRwcDJ9Y8cSpyQKtOqpE0tAwrusds2bFyd2SXCMEDhMEFvBHoLY4pbU2SB565EMppYIgsIHW0aZNmwp/98lP3fjMM8+8N5PJWOecctZKrq6u6/z3ve8ukZfPv0qCR4IgkDlz5tztnDMiEhpjVKFQyF37pS/933vuvntuOp0uJXfCjfoeRnlPWms96gbG1loJgkCmz5ix2VlrlVKhtTbOZLLhnbffccHQ0KBNpVJijNnvXM45rbV2YRiaMAwrL27bVti+ffsMHejhn0crpdLJyJseOcKVjJYF2WxWFi05oX1gzx5RSulsNus2b9o06bcPPzxHa21NHIejfLZgv8n2zsng4IAJgiBKpVJxGIZGa22T72vU76f2OVKpVNzf3+++cPXVV/T09h4dBEEt/lxzc/NjqVTqkG9iDeDVsUwD8BZW2wqmUqmoF154Qc2ZO9dorUedn9TT0yNr16w56sFly95z1w9/9JHu7u4TC4WCs9bqMAyj7u7u1EUf+MCNxxxzzM7a0gbDX1/dZNmpD37oQ7+69eZbftPR0XF6JpOxopQrl8vTr7riyp+vXbX62tPPePddJ550Umc6nT7g+y+Xy7LuqafScRS1tU6c2DtlypTu2qXAINljb8aMGY9OaG3tLJfLLVrroFAouN89+uhfXvm5Kx/72tf/+TvJBsj7Wbly5dg1q1cvfP7Z505++KGHzti2bdvibC4rtfgRkfDW73//70448cS/b21tfaU5XU4pJc3NzeuzuWzZOZcxxsSFQiH89rduuuads2dvWrxkybOjvfDp3/8+aG1rsw0NDdUbAkTUpy+97KOtbW0z6upyz02dOnXb7LlzO/p6e3ccO2/e7mJx5P7aVeuffjq9ZvXqU++8/Y4Pr1q18qN1uZyz1koYhs5Yo//ioot+eMAvGsAhR2ABb21KKeUq5UrdF67+/O3f+uaNvUpJj3PSrUT2iCQ704iM2zMwMGlHZ2djd3d3Sz6fl3w+b5K1pqJSqZRqaGhY/jef+PjXRURZa11tlfVhJxJrrRo/fry56vOfv+KSj3/it9lsNmWMsel0WqIomnTDDTd884477rhy4sSJ7ZlMZqMT6U7GcKyI1ItIXkQCJ9KgRAqlUql+d9fucE//nvqL/+sll1951VW3SnVkxuogsNZavWDhwq2zZ8/+yW8efvhv68eONSaOdbFYTN3z4x/ftGrlyr846+yzHmhuadkhzuV37drV8OCyZVO11rM6XuqY1NnZOaFSLmfGjB0ruVzOOOesMUZZayWdTtvly5d/+sI/e//M884797Yzzz572YKFC1+q7X0oUo1KEZF58+c9NmFC64u9vb3TwjDUqVRKOjo6Fl/8Nx//7aRJkx53IpuVSEFExolSY6w1TT3dPfEN3/zGXy1ZsmRdEnVmxfLlH9+8efPJSkSK9fVDTeObBivlysD48eMH8vl8rxPZqUT6k5+ZGGMm7ty1s21n547J1rpMvpB3yche1Nvbm37HO2bdedrppz/KKu7A4YfAAt6Cklv4ja5y1lrd09MzeceOHZNl397JtWeLiBMdBJJOp6WhoSF2zlnnXKiUUgMDA6lisfjUv/zb//ur+ccd122tVcklqNHOa40x+tzzz1v+oQ//5SW33XrLv9bXjwl0dbQpbm1rU5VyedKGDRsmOWtPevn7qHIiUpukrbWWbDYrpVJJ4jgu7HdCEZdKpdRnPnf5/1qzZs3ZlVJ5WiabiY0xKpvN6s2bNp3x7W/ddIYaduzaqF4mk5Fx48aJtdZGUaR7enoCcU4KxWJtNE7q6vJuR0fnOV+85ovnpDOZqxcsXPilZM5WlLw/Z4wJjnnnO7tPPf20W26/7Qf/s6mpycRxbLLZrPT3949fu2bNeaLUvgn3yYT8uro619/X1zz8wxQKBdPa2lpOZzKqUi5n+/v6cyLSuGnTJrHGyL7jJN+bUpJKpaQunxelVNk5F2qtg3KpnG5qbFxx7Vev+2zT+CYxxqhDtGQFgINEYAFvQcaYVKlUCsvlskSVSHJ1OUmn05Krq7OqOlpkZVjZJFvgBNaYoFwuh5VKRay1kkqlSrPnzPnul6798peOO/74zgNNlFZK1eZm6euu/+q/t7a17vn2t266vr+/f2o6ndaZTEYymYzNZDLxiBEVLdW7ArVSSpfLZUlWYJehoSHp6emRoaGhxpHnq8Xj4iVLXvrK9ddfcMVnP3tHV1fX24vFoqRSKakfM6YybPKRTiaR60qlIkNDQ9Lb2yv19fVREAQrP3P5Z7+VzeXkq9de97VSqdSSy+UkV1cnuVyuPHbsWMlkMn2jfWattXHOqSuvuuq6dU89teCptU+eWygWJZfLSRAElWw26/Z+b0opVV2sNdi6datasXxFy3vPPFOstaK1lv7+vuaOjo5MNpuVbDa7d+5cfX29cyJGjfy5VZe+CCqVik7unpRUKhXNmTvnezd95zufnzZ9+k7nHHEFHIYILOCtxYmI5Av5HVOnTf1dc0vLWBPHdRs2PJOvlKO80ionr3DzirNOMtnMwJQpU3Y0NDS8cNzxx//mXe9+161nnn32c1prsdbqZCTqVSUbFrt0Oq0/d+WVdy058YQHf3THDy/5/bp1f7J169a3b9mypTkVptJulMXOlSgXxVH/jBkz9oxtGNsbVaLetoltuwvF4q45c+c+Mvwz1mitrTFG/9kF71/d1tZ6+je/8Y0r1qxefea2bS/OtMakZdhEcmutFIvFrokTJ25vmdCyeeKkSY+e/6d/es+JJ530bG0u1Izp0x/+wQ9+8N+3bdn67ifXPnlUmArzu3q6pb+/34x2/toSEW1tbUO333nnBf98/dcuv+/eey/atGnTrDAM05l0WoIgkFK5LMYYsdbahoaG3a1trTtzdbmB4cf66Mc+9oV169YtViJHPbP+mQla66ZtW7c2dHR0jNFa77epYvKZXFtbW2dLS8sL02dMf/ysc865+aIPfGBlJpMRZ51SmkuDwOGIwALeQmpzgt717nc/8dN7f3FKGATjRKnik2vXFsqlclFrnXfi8iKSTR5ORJQSVbLW9uXqcl0zZszYPmHChPZxjXsHjFQy7+igR0GS6LAiok899bTdp5562pc7Ozu+/Nyzz83etnXbxFQ6Nc45t/f8IjIkIkNKqYEoivpnzZrV29jY2F2uVHZPnjw5zmQyw4+9XzAEyXysRUuWvHTzkiX/bfWqVeNf2PzCHGPMBFGSERFRogaNNT1jx4zdMXXa1PZJkyd35fP5vcdwzmnnnJx7/vlbzz3//H/YsmXL2BXLlx+jRLUMDQ2NnXfc/Idr5xrl8zrnnGqZMKFy3fVf/aePfuyvb3xy7dp5QRBOXLXyiYadO3fWHXf8gu6Wlpb+2MS7Ghoadk2fPn17U1PTruE/t89cfvldInKXiMimjRsDHQQtmzduatq5a2dDoIN6J66Q/NxERJwSNWCt6Zk8dcpLzc0tz8yYMaO2qfZr/pkBOMScczx48HjrPdQbfL2OoiisrcH0Rh7GGBVFUfAG3lOYvBd9MOcyxgQHedwgiqKgNql9+DHiOA5fz3u11kryWV/253EcH9Tr4zjWyRpYr+v8xpgwjuMDfk88ePB48x+MYAFvQa5q7yKXw1YTH76W0/B/r40KVTdDrm69EosHyQbLJllYM3D71pMa7fwi+/YsrP17/EpLLYx2LhExwxYmHX459OWfUSkz2nGTY8TWWmWrC5UqcU7pZMPoVzu/Ukpqq7cnr9XJFjZuxIKhtfdgh6+FlYyOWZG9P7PaRtci+76v/b635PuyWmsvPzMAf3gEFvAWpJSqXUpzIvvuynsz1eLnUJxr2GW8132+Whi+wdcakeqVgJHLWhzMMWTkLZYA/mi8+b+VAeAt7mUrtgOAEFgAAADeEVgAAACeEVgAAACeEVgAAACeEVgAAACeEVgAAACeEVgAAACeEVgAAACeEVgAAACeEVgAAACeEVgAAACeEVgAAACeEVgAAACeEVgAAACeEVgAAACeEVgAAACeEVgAAACeEVgAAACeEVgAAACeEVgAAACeEVgAAACeEVgAAACeEVgAAACeEVgAAACeEVgAAACeEVgAAACeEVgAAACeEVgAAACeEVgAAACeEVgAAACeEVgAAACeEVgAAACeEVgAAACeEVgAAACeEVgAAACeEVgAAACeEVgAAACeEVgAAACeEVgAAACeEVgAAACeEVgAAACeEVgAAACeEVgAAACeEVgAAACeEVgAAACeEVgAAACeEVgAAACeEVgAAACeEVgAAACeEVgAAACeEVgAAACeEVgAAACeEVgAAACeEVgAAACeEVgAAACeEVgAAACeEVgAAACeEVgAAACeEVgAAACeEVgAAACeEVgAAACeEVgAAACeEVgAAACeEVgAAACeEVgAAACeEVgAAACeEVgAAACeEVgAAACeEVgAAACeEVgAAACeEVgAAACeEVgAAACeEVgAAACeEVgAAACeEVgAAACeEVgAAACeEVgAAACeEVgAAACeEVgAAACeEVgAAACeEVgAAACeEVgAAACeEVgAAACeEVgAAACeEVgAAACeEVgAAACeEVgAAACeEVgAAACeEVgAAACeEVgAAACeEVgAAACeEVgAAACeEVgAAACeEVgAAACeEVgAAACeEVgAAACeEVgAAACeEVgAAACeEVgAAACeEVgAAACeEVgAAACeEVgAAACeEVgAAACeEVgAAACeEVgAAACeEVgAAACeEVgAAACeEVgAAACeEVgAAACeEVgAAACeEVgAAACeEVgAAACeEVgAAACeEVgAAACeEVgAAACeEVgAAACeEVgAAACeEVgAAACeEVgAAACeEVgAAACeEVgAAACeEVgAAACeEVgAAACeEVgAAACeEVgAAACeEVgAAACeEVgAAACeEVgAAACeEVgAAACeEVgAAACeEVgAAACeEVgAAACeEVgAAACeEVgAAACeEVgAAACeEVgAAACeEVgAAACeEVgAAACeEVgAAACeEVgAAACeEVgAAACeEVgAAACeEVgAAACeEVgAAACeEVgAAACeEVgAAACeEVgAAACeEVgAAACeEVgAAACeEVgAAACeEVgAAACeEVgAAACeEVgAAACeEVgAAACeEVgAAACeEVgAAACeEVgAAACeEVgAAACeEVgAAACeEVgAAACeEVgAAACeEVgAAACeEVgAAACeEVgAAACeEVgAAACeEVgAAACeEVgAAACeEVgAAACeEVgAAACeEVgAAACeEVgAAACeEVgAAACeEVgAAACeEVgAAACeEVgAAACeEVgAAACeEVgAAACeEVgAAACeEVgAAACeEVgAAACe/Ser2aZ+WIHg1QAAAABJRU5ErkJggg==;clipPath=inset(15.67% 31.95% 40.33% 31.95%);" parent="1" vertex="1">
          <mxGeometry x="184.9" y="400" width="59.8" height="78.93" as="geometry" />
        </mxCell>
        <mxCell id="k5H__xr2OXsbT5dIlqPR-21" value="" style="shape=image;verticalLabelPosition=bottom;labelBackgroundColor=default;verticalAlign=top;aspect=fixed;imageAspect=0;image=data:image/svg+xml,PHN2ZyBoZWlnaHQ9IjI1MDAiIHdpZHRoPSIyNTAwIiB2aWV3Qm94PSIwIDAgODAgODAiIHhtbG5zPSJodHRwOi8vd3d3LnczLm9yZy8yMDAwL3N2ZyIgaWQ9IkxheWVyXzEiPjxzdHlsZT4uc3Qwe2ZpbGw6I2YzYmQxOX0uc3Qxe2ZpbGw6IzIzMWYyMH0uc3Qye2ZpbGw6IzNlYmViMH0uc3Qze2ZpbGw6IzM3YTU5NX0uc3Q0e2ZpbGw6bm9uZX08L3N0eWxlPjxwYXRoIGQ9Ik00MS4xIDQxLjlIMTUuNlYxMi41aDcuN2M5LjkgMCAxNy44IDggMTcuOCAxNy44djExLjZ6IiBjbGFzcz0ic3QwIi8+PHBhdGggZD0iTTQxLjEgNjcuNWMtMTQuMSAwLTI1LjYtMTEuNC0yNS42LTI1LjZoMjUuNnYyNS42eiIgY2xhc3M9InN0MSIvPjxwYXRoIGQ9Ik00MS4xIDQxLjloMjMuM3YyNS42SDQxLjF6IiBjbGFzcz0ic3QyIi8+PHBhdGggZD0iTTQxLjEgNDEuOWg1LjR2MjUuNmgtNS40eiIgY2xhc3M9InN0MyIvPjxwYXRoIGQ9Ik0wIDBoODB2ODBIMHoiIGNsYXNzPSJzdDQiLz48L3N2Zz4=;" parent="1" vertex="1">
          <mxGeometry x="310" y="300" width="106.97" height="106.97" as="geometry" />
        </mxCell>
        <mxCell id="k5H__xr2OXsbT5dIlqPR-23" value="&lt;div style=&quot;font-size: 17px;&quot;&gt;&lt;font style=&quot;font-size: 20px;&quot;&gt;Beat&lt;/font&gt;&lt;/div&gt;" style="text;html=1;align=center;verticalAlign=middle;resizable=0;points=[];autosize=1;fontColor=#000000;" parent="1" vertex="1">
          <mxGeometry x="185.8" y="474" width="59" height="36" as="geometry" />
        </mxCell>
        <mxCell id="k5H__xr2OXsbT5dIlqPR-24" value="&lt;font style=&quot;font-size: 16px;&quot;&gt;Logstash&lt;/font&gt;" style="text;html=1;align=center;verticalAlign=middle;resizable=0;points=[];autosize=1;fontColor=#000000;" parent="1" vertex="1">
          <mxGeometry x="322.48" y="387" width="83" height="31" as="geometry" />
        </mxCell>
        <mxCell id="k5H__xr2OXsbT5dIlqPR-25" value="" style="endArrow=classic;html=1;rounded=0;entryX=0;entryY=0.75;entryDx=0;entryDy=0;strokeColor=#000000;" parent="1" target="k5H__xr2OXsbT5dIlqPR-21" edge="1">
          <mxGeometry width="50" height="50" relative="1" as="geometry">
            <mxPoint x="250" y="440" as="sourcePoint" />
            <mxPoint x="340" y="390" as="targetPoint" />
            <Array as="points" />
          </mxGeometry>
        </mxCell>
        <mxCell id="k5H__xr2OXsbT5dIlqPR-26" value="" style="endArrow=classic;html=1;rounded=0;entryX=0;entryY=0.25;entryDx=0;entryDy=0;strokeColor=#000000;" parent="1" target="k5H__xr2OXsbT5dIlqPR-21" edge="1">
          <mxGeometry width="50" height="50" relative="1" as="geometry">
            <mxPoint x="170" y="280" as="sourcePoint" />
            <mxPoint x="310" y="285" as="targetPoint" />
          </mxGeometry>
        </mxCell>
        <mxCell id="k5H__xr2OXsbT5dIlqPR-27" value="" style="shape=image;verticalLabelPosition=bottom;labelBackgroundColor=default;verticalAlign=top;aspect=fixed;imageAspect=0;image=https://www.sunzinet.com/hs-fs/hubfs/02.%20Badges%20and%20Certificates/Partner%20Logos/elasticsearch-agentur-SUNZINET.jpg?width=866&amp;height=650&amp;name=elasticsearch-agentur-SUNZINET.jpg;" parent="1" vertex="1">
          <mxGeometry x="460" y="206.46" width="116" height="87.07" as="geometry" />
        </mxCell>
        <mxCell id="k5H__xr2OXsbT5dIlqPR-29" value="&lt;div style=&quot;font-size: 17px;&quot;&gt;&lt;font style=&quot;font-size: 20px;&quot;&gt;Elasticsearch&lt;/font&gt;&lt;/div&gt;" style="text;html=1;align=center;verticalAlign=middle;resizable=0;points=[];autosize=1;fontColor=#000000;" parent="1" vertex="1">
          <mxGeometry x="450" y="292" width="136" height="36" as="geometry" />
        </mxCell>
        <mxCell id="k5H__xr2OXsbT5dIlqPR-30" value="" style="endArrow=classic;html=1;rounded=0;exitX=1;exitY=0.25;exitDx=0;exitDy=0;entryX=0;entryY=1;entryDx=0;entryDy=0;strokeColor=#000000;" parent="1" source="k5H__xr2OXsbT5dIlqPR-21" target="k5H__xr2OXsbT5dIlqPR-27" edge="1">
          <mxGeometry width="50" height="50" relative="1" as="geometry">
            <mxPoint x="430" y="305.53" as="sourcePoint" />
            <mxPoint x="480" y="255.53" as="targetPoint" />
          </mxGeometry>
        </mxCell>
        <mxCell id="k5H__xr2OXsbT5dIlqPR-31" value="" style="shape=image;verticalLabelPosition=bottom;labelBackgroundColor=default;verticalAlign=top;aspect=fixed;imageAspect=0;image=data:image/png,iVBORw0KGgoAAAANSUhEUgAAAlgAAAKKCAYAAADhkCX4AAAACXBIWXMAAAsSAAALEgHS3X78AAAgAElEQVR4nOzdd5zlVX3/8ffnnO9t02f7sL3A0lsAsSsaFGyJvaJpGvMzRmMSUxQ1mqJpv8QSjckvGo0iqIkVTRCwYAUpKqwUYVlgd9k6uzvlzv1+z+f3x70DCywLC3fnTnk9H1x2587s3O/Mzp157Tnne76ZuwsAAADtEzp9AAAAALMNgQUAANBmBBYAAECbEVgAAABtRmABAAC0GYEFAADQZgQWAABAmxFYAAAAbUZgAQAAtBmBBQAA0GYEFgAAQJsRWAAAAG1GYAEAALQZgQUAANBmBBYAAECbEVgAAABtRmABAAC0GYEFAADQZgQWAABAmxFYAAAAbUZgAQAAtBmBBQAA0GYEFgAAQJsRWAAAAG1GYAEAALQZgQUAANBmBBYAAECbEVgAAABtRmABAAC0GYEFAADQZgQWAABAmxFYAAAAbUZgAQAAtBmBBQAA0GYEFgAAQJsRWAAAAG1GYAEAALQZgQUAANBmBBYAAECbEVgAAABtRmABAAC0GYEFAADQZgQWAABAmxFYAAAAbUZgAQAAtBmBBQAA0GYEFgAAQJsRWAAAAG1GYAEAALQZgQUAANBmBBYAAECbEVgAAABtRmABAAC0GYEFAADQZgQWAABAmxFYAAAAbUZgAQAAtBmBBQAA0GYEFgAAQJsRWAAAAG1GYAEAALQZgQUAANBmBBYAAECbEVgAAABtRmABAAC0GYEFAADQZgQWAABAmxFYAAAAbUZgAQAAtBmBBQAA0GYEFgAAQJsRWAAAAG1GYAEAALQZgQUAANBmBBYAAECbEVgAAABtRmABAAC0GYEFAADQZgQWAABAmxFYAAAAbUZgAQAAtBmBBQAA0GYEFgAAQJsRWAAAAG1GYAEAALQZgQUAANBmBBYAAECbEVgAAABtRmABAAC0GYEFAADQZgQWAABAmxFYAAAAbUZgAQAAtBmBBQAA0GYEFgAAQJsRWAAAAG1GYAEAALQZgQUAANBmBBYAAECbEVgAAABtRmABAAC0GYEFAADQZgQWAABAmxFYAAAAbUZgAQAAtFnW6QMApjN3mUvW6ePAAbnZ/V7u0IEAwP0RWMBBmMlN8k4fBx5SkBQbyU3N8HKTuUkpUF0AOoDAAg7i9pF8/o560RfMCjGSNV2MJXfNr8SJ+ZUw4dJ4cqXeLKTSA2vKClfQvaNbk6NejHYBOKwILOAg/vSanef/54Y9r1LJ6nLWLE4Tu+VKS3tLI0f1lfYl9+HcteOIWtx20mBlW+G+eV1v6c61vdnGpV3Zrcu6suIA7yMUruByj2aJUUoA7UZgAQfRndlALIfBWsmU+BE8XSySpK3jhe4cyZv3mKTkuujmvZJLoRLG5lXi7v6S7Rgsx1tX92TXnDKv/P3T51evO3GwvHOgHEbLwVJrUDLkrhCk1JoSBoBHjcACDiK5isLlhatIrtjp44Gk1mhTZvJyye552WRuZmbNtVi13ROptr3uQ0qN46/cbs+5aOOIJE30lcM1T1lcveLMBdUrj+4vXfOURbXrByth/3ceksta67fIagCPCIEFHJzd74bOu6eqivvnj7vUXF/lmclLwWTR5JI1X6PyeOFnfHHT6Blf/MU+KQtbT55X/tnxg+XvnLem53OPXVj9aU8WUmz+TVvhykwqCC0Ah4rAAjDbmE/+eoAsMinVMkuxlFlyX3zNzonF1+yon3XRxpE/GSiHa1+1pueCJy+qfePMhZVrFlRiLklJCnLJTInKBvBwEFgA5pqQXCE16yt1lcwls9xV2l5Pp/3tT3af9rdp9+jJiyrf+OWhrv9+3vKuzzx+YXWkNX4ZcpdFU0FoATgYzooCMJeFwhULVzBJJZN3lUPRXY1d1+yYeM7f/HTXvz3jks0/O/cbm9/9ox31dY3kKWvGVUx+z0gZADwAgQUALd5cdxVzd+8qWd5VCj6RtPLiO8fedsZX77zmeZdv+fCHb9xzxkieitA849ByTn4AcAAEFgA8kBWurHApmrxWslTLrPviTaOve/33t//PE76++YJ/uXHPieOFe2YqCleWnJMgANyLwAKAB2cuWXPNlry7HPJayfqv2Vl/yeu+v+1HT/2fuz5yyeax46IpDyZPrsi1KwFIBBYAPFyWN0eqvJZZ6iqF8ve31V97zqWbL/2Vy7e8+4pt4wOhtfi9YNd/YM7jmwAAHBpLrlC4VCtZnpkt+sKtI2977qVbfvBn1+x88d48eTQlRrOAuY3AAoBHKLkySam7GtK+3I/6y2t3feYZ/7P5c5+/fWQ9o1nA3MYTHwAeBW9dy9BM3l2O6Xvbxp//km9tveI1V9z9O9vrhaIpNS8sDWAuIbAAoD0sdw9d5ZiXgs3/+E17P/j4i++68Dt3j6+KzR3gA2caAnMHgQUAbVS4Z0lKXZWQbtzbeOGzLtty+buv2/Ws8cJTMKkgsoA5gcACgPYLhSvUMsvrha88/6qdX3zFFVvfsWWsCLG5nQPfe4FZjic5ABwmyZWZlLqqwT5/68g7n3bJXRf8YHt9YTCl3J1rwQKzGIEFAIeRN0ez1F0O+fW7Jl74wm9u/fq/3rTn+MwsL1zBWf0OzEoEFgAcfpa7sq5SKLaM5af81ne3ff39G4afGk3JTDF1+ugAtB2BBQBTpHDFUrSiWgpH/N4Pt3/1/94w/HJJRZAiA1nA7EJgAcAUSq4oKVWyUH3zj3Z87DXf3fa6XROpsOZUImcYArMEgQUAU8yb33tTV8nix28c/ueXf/vu3xnJU4qmwHQhMDsQWADQAa3F79ZTjfa1O0Y++Pxvbn3D7uZIVmRDUmDmI7AAoHOskZS6yiH9zx2j//jSb299/WieCpcHJ7KAGY3AAoDOCoXLusvBvr5p5EP/fOPe86JZwUWigZmNJzAAdJ4VLtXK0f/oyu3/8v4Nw8/NgorClXF2ITAzEVgAMA24ZC55JQuV3/vB9v/4wM+HHxtNeeusQwAzDIEFANPE5NmFpVLof+MPd3ziyh31FdHEdCEwA/GkBYBpxKUQTUUp2NrnXbbl4z/ZNdEdTSKygJmFJywATDPJFbNgjbv25U85/7qdfzOWe1JzChHADEFgAcA0VLiXuquh+O9f7Hv9G360/bdaU4WsxwJmCAILAKapIil0VWP6fzft+Zt/v2XvL2WmonDn+zYwA/BEBYBpavLMwnIM/X981Y4PXbOz3hPNxE7vwPRHYAHANNZcj6V091hxxjuu2/VOl1iPBcwABBYATHOFy2rlUHxp0+gb/+H64acFU3LWYwHTGoEFANOfyaXMVPrrn+3+m5v3NgYlKbF1AzBt8eQEgBkgSbEUrdg2Vpzy5it3vDmYCjPWYgHTFYEFADNE4YrVkvmXN43+wYUb951kUsGCd2B6IrAAYAYJUjJT7Z3X7v7LfY0UzWRJRBYw3RBYADCDFK5QzazYMDzxy/+4YfhXTEpiLRYw7fCkBICZxdylcrDSu3+y+613jOY1MyWmCoHphcACgBnGpRiDUj330//yp7tfbpKLaUJgWiGwAGAGSi5lwfzC2/b98YbhxkAwOaNYwPRBYAHADOSSVTPzHSPFuo/ctOeVyeWJ6xQC0wZPRgCYmSxP7uVK0Cdu3vsbG0fy/ixYYvNRYHrgiQgAM5RLMTMVO8aLk//vDcPnSHJjkhCYFggsAJjBkstiKeg/b9v7e/saKbQWvAPoMAILAGYwl6wUpD319Jh/v2Xv0yR54c6FoIEOI7AAYGazIBWNwu0zG0fOGy9c0YxhLKDDCCwAmOGSy6rloGu3jf/y97aPr5NUJEaxgI4isABghnMpRCnfV/jij96455zkUjRjEAvoIAILAGaB3BViFvybd9dfOpE8qrkXKecUAh1CYAHA7BBKJrtrLD/zc7fvO94lOWNYQMcQWAAwSwRTUqHwtbvGXmySktjZHegUnnwAMEu45CFIV2wbf/ot+xoxmiWuTwh0BoEFALOEu6ySmTbuyY++asfEKSZ5wSgW0BE88QBglnApRLM8Fanvp7vrj5OkIC6eA3QCgQUAs0jhrpAFXbJ57PF7GilEU87ZhMDUI7AAYBZJrljNTN/bOv6EbePFPKk5ddjp4wLmGgILAGYXcylZtCMu2zp2ZKcPBpirCCwAmIXcpW9uHX9ip48DmKsILACYjVz64fbmQncAU4/AAoBZxiWFII3mfsJNexqlYPLEru7AlCKwAGC2cVk00548DW4azY9Wc8aQ7/fAFOIJBwCzjEsqR9O+0bz/m1vH10tScudMQmAKEVgAMPuYSXlKChPuR7Xu4/s9MIV4wgHALJTcXaWgH26rrxhuFMqCubMOC5gyBBYAzE4mk0bytDy5okm52NEdmDIEFgDMQt5a6L5lrFiyeyL1SRKXzAGmDoEFALNQkqwapY17GovvGiv6pebidwBTg8ACgNlpcrRqobt673cfgMOMwAKA2ckkFZLKXZl1dfpggLmGwAKAWcoll0k/3lnvlxi+AqYSgQUAs5RLJjNduaO+UJLMWIYFTBUCCwBmua7Mejp9DMBcQ2ABwCyXXN2dPgZgriGwAGD2633oNwHQTgQWAMx+rL0CphiBBQAA0GYEFgAAQJsRWAAw+7EFFjDFCCwAmP1GO30AwFxDYAHALGfScKePAZhrCCwAmOUa7oxgAVOMwAKAWcokl7uW1rKdkuTOWixgqhBYADBLmWRy6YmLarslNsMCphKBBQCzk0uKkvJo2tfpgwHmGgILAGanyQGr7a57AotBLGCKEFgAMAsFSeOFtLq/dPfSrmyPxGZYwFQisABgFjJTKty1pBY395Vst9Ra9A5gShBYADCLBdOd0SxXcz0WgQVMEQILAGahYCblSScNVm7rKwUV7sGYIwSmDIEFALOPS8rk8nmVeIskJWf0CphKBBYAzEKN5CpX496TBso/lyQzAguYSgQWAMwyJnnhUl8p7FrWFa9v3mep08cFzCUEFgDMMmZSXrgGy+GmMxZUx5IrREawgClFYAHAbGTyJy+uXhFY2A50BIEFALOQSXbiQPmKTh8HMFcRWAAwu7ik4K7dZ8yv/LTTBwPMVQQWAMwiwZTquesxCyvfOXFeZbvEGYRAJxBYADCLBJOnwnXqvMp3SkGN5MrEDu7AlCOwAGCWaG3PELNoo884out7mZkKdy7yDHQAgQUAs4SZUr1wW9aT3XTsQOkqSRbNik4fFzAXEVgAMEuYZEruy7uz76ztKY0k9xhYfwV0BIEFALOEu4Kb2ctX91wQTHJ2bwc6Juv0AQAA2iI1XDbUlf3s2Ud0/UBqnlHY6YMC5ipGsABgFogmz/NkzxyqfXpZd9aQxCbuQAcRWAAw8yWZheDa9+JV3V91Sbk7fQV0EIEFADNcNKWxicJOWVS9/MwF1Z+aFDh7EOgs1mABD4mTsKCH+DKYfKXt98sUDiCZRSXpSYuqnxgoh7yRPJaYIAQ6isACDiZEKZbk0eR0FpobIdzv9yaZNRvLk5QKWUpSymVyuYXm6w9fcKV6kayvFm/4g2P7v+iSssDoFdBpBBZwEANf/oAWXfBZ9fR0KyVOyJqzLChUK/IQpWpNXu1W0T2oie4FUl+figXLNNG3WF7uUlHtkVe7VHT3q7Aoa9Sbt1TsF2StX9sgmlRvyF5/bN+HjujKxr25uJ0vVqDDCCzgIOLencq2b1I23kNgocmb/8skVSaHNT0plMtS34Am+peoGFysxvylyuctVb5kjRpHrFOja56UCim1RrmKvDniZSbZI14Om5IrVKJuf/Wa3s+4N8sqMjsIdByBBRyEx5K8VGneCCw8wL0lU7jLh/co7typ7ObrVC0aslJJRd98FX3zlRav0MTakzW26mRNDCxV6upVKlVlE80RLpkOObQyMx+ZKPQrq3r+dXVPtk2mLEh5mz9IAI8AgQUclEu+3w24j/t+TViMUszkZs1bSrLREWV7dkt33KTy1d9UT4zyxcs0duRpqq86SRMrjlN90Wp5kWSN8eb6LflDrtsyyRvuoVoKd/yfo3o/VolmhXsRjeErYDogsACgXdzVjPLmiyZJMcrj5LfaVqhv3qSujTequ/QZFYtXqbH8aI2e8CSNrXuM8q5ByUw2MS5LRXPd1wEEk483UnjWsu5/PmtJbVNyhWhcGgeYLggsADicJqNrf1kmL/Urucu2bFL1rltVufpSDQwu0tjJZ2nkuKdoYvkxyqv9CuP7mmu1Js9WbP4uFS7rK8df/OnxAx8OZpac/USA6YTAAoCp5i550RzhKleVTM3F7zvvVtfXPqaub31WE+tP0/hJZ2nf8U9Vo9ovyxuyvC5Z8CwG7RvN7S2nznvv4xZVdxbukY1FgemFwAKATvJ07wBXyORdvVJyla++XJWffU/dR3xKo2c+T/tOeLoag0MKjfE0NjERVw6Uf/TqNb0fSy6TmBoEphsulQMA04Y3R7IkeVefUigp3vEL9X3mb7T4n39bA5d8VNno7pjK3fV3nzzvj47qy/LkHqIxPQhMNwQWAEw73twzSy4vlZWq3bItm9T/3/+YFrz/dVrxi4uvO2Gg8UPJUhasSO58LwemGZ6UADCduTenEStV5bEWaj7qR9TuPPWPL77oh5+89sqXbBnZq2CW3D0kd/ZoAKYJAgsAZoKiUAim7nOebtn8hXHvvpHj/vrbl1zwxq9+/iv/84sbTzWzFMw893TgfR0ATCkCCwCmuxDk9Ql1nXmqauvXysfGFWJIC7u606ZdO859+/9++Tvvuvzr79i4d7g/s1C4e3RGs4COIrAAYDoLQV6vq7Riqfqe8jh5nk9+5w55SlaOWVHNstp/XX/tO3/zCxd8/YLrr32ymRVm5qzNAjqHJx8ATFdmzanBWk395z5NoaurdZbhPYNTltxjcveBaq0YHR19zPu+dcnFf/Gt/33b5n17y8EsFZ74Pg90AE88AJjGvJGr92lPVHXNCnm9fs9u7vdjRUoxxpj3lUq1z/306nf/zpcv+tL377x9fbSQEgvggSlHYAHAdBSC0ti4uk47ST2PPVVpvC6Fg3/LdvescPe+Sq3YMjx89pu/+vnL/vlH331BaC6ANyILmDoEFgBMN611V5U1K9V/zlOl4pD2EbXCUyxnMY/S0Ed+9J3P/vV3Ln371pG9HsycKUNgavBEA4DpxEzeaCgODmjgV5+p0FWTp+LBpgYfVHLPgoU0WKn5p6/90Z+/6eL//tide4f7ooWUJ7ZyAA43AgsApovJRe3lsgZ+9RyVFi+S1xuHHFeTXB5yT5pX6ypu2b71vLd87Qtf/PamW5dlIRTJncgCDiMCCwCmA1PzDEEz9T/3GaoeuUY+Pi6FR71syvKUYlepkt+6c/uT3/r1L/7vZbfdckIwKwpPWRuOHMABEFgA0GlmkkteFOo75yx1nXJc84zBh1jUfigKT1k1ywpL6eg/u+RLX7/01pvOjBbyxHQhcFgQWADQSa3pP59oqO/sJ6vncafJ6xOPeFrwYJJ7zGIszDX0tku+8vnLNt7yxMB0IXBYEFgA0CmthvKJCfWe9QT1PPFM+URD+20k2nbJPWYhJLkPve1/v/yVyzbe8rRgVhSJ6UKgnQgsAOgEMyndG1d9T3+CVBSt1x3eh07uoRRj8pR6/+x/v3zBpbfd9JgYQs5IFtA+BBYATDUzKaXmmqtnnqW+pz1BnheSH9J+V49KK7IKpbTg7Zd89QuX33bzqcGM6UKgTQgsAJhKZvLWSFX/c89W75PObMWVDsu6q4NJ7rEUY3L3xX96yVcu+sbGW1a3IoufDcCjxJMIAKZKCPI8V6iUNfiCZ6nnMafKJyaar+vQRWySeyiHUHhRrHn35V+/6JbhXYubO74TWcCjwRMIAKZCCPLxccXBAc17xfNVO/n4ZlxN8ajVgRTusZxlRX1i4pfe+eMr3n9XfdSCSS6uXQg8UgQWABxOZpJJaXRMlXWrNf+8F6qydlVzE9FpEFeTUkqxXCkXN0yMveidP/nRX0qWvGPjasDMR2ABwOESglQU8olcPY8/XfNe8QKVFsyTj423dRPRtnBX6u6OvdVacd3u7W/94E0/fVVoRlY2dUvvgdljmj3DAWCWCCYfr8uqVQ3+6jkaeO7ZsizKG/m0jCuVSrK+XrknK4XoF95x899ffvddp5iUO+uxgEPGkwYA2ikEyV0+Xld5zUrNf82L1f2YU5sbiLauNTjtuMsG+2Xlktw9RLOUXAv+esPVH91eH+8NxnQhcKgILABolxCa1xCMUb1nPUHzz3uRykuXKI211ltNx7hKSeqqyfp6m7+X5FIshVDsbtR/6fyf/vCvxlNhkmIisoCHjcACgEcrNDcOTWPjKq9eofnnvUh9Zz9FFkNz5CpM4y4JQTZ/3gOmLZN7qMUsv3LXttd+7o5fPM+kXEwVAg8b154CgEfKrDkdOFZXGOhV/+PPUM/pJ8tq1eZZgiFMz1GrSSnJFsyTdVWl9ICl7ObuoRpj+Ogvrv/7E/vnffeE/vnbXG4mY9078BD41wgAHKrWdJ/X65KZuk4/SQt+/WXqe/JjpSyTj9en30L2+0sudXdJAwNSOvCbuBSihTSWF6v/9Rc3/NVYkbs7dQU8HNP8OwAATCOtaPKJCXmeq3L0kZr3yhdo8AXPUmnh/OZaq+TTP67cpSzKFs5Xc0fRB0+m5G5dWVZcsX3rqz+58aZnBbMkiesVAg+BKUIAOJj9pvjS2LhCFlVZs0rdZ56q6vq1zTPv6q3L3Uz3sJpk1oyrcrkZVwefxTR3t1qM4bN33PyeZw+t/NaSWtc+pgqBg5sh3w0AYIqZ7bdRaEOeF6odc6QGXvw8zX/1i1Q74WhJasbVdD1D8EAmt2To7TnoyNV9/ogUshDSromJkz94809/x1qXpj68BwrMbIxgAcD+Wpe28XpDnpJiX4+qq1eo+4xTVF6+VFYty+sTMy+spOY2DL09svmDDzuuJjVHsUrpG3ff8dZn71h54ZnzF9+a3ENryhDA/RBYAOa2yUhKSUpJXhSSu0rLlqq6fo2qxx6l8hFDkjdfd89lbmZSWJmkIkm1msKiBa07DjGwJMvM0khKgxfdcctbTxtc+Ns2kz4HwBQjsADMPZNR5d6c/isKhUpZoadblXWrVTvuKJWWDSn29TWnCOv1ZpNMThvONMmlcllhyUIpxkMevZqUewq9pbJ/d/uWV1+8+faPPGfpqquTewxmRZuPGJjxCCwAs5Pd8797uTejqpHL81xWLqk0tEilocWqrFmhypFrFLu7pBjkeSEfG2tF1QweqXGXYpQtXiiVy/fs1v4ImbsnyaqfvP2mP3ra4qUv68pKTBECB0BgAZi59o+o1u+bA1MuFUmeiubUWHNHJ1kMskpF5bVDqqxYqtLSJSotWqDYWpM0uZhded58nzNxtGp/ruZO7YsWyrpqjzauJt9lqMbot43sfeGX7tr4Dy9Zse6HRev6hY/+gIHZg8ACDmZyWmimLWae7VojUUqSe9H6fZKnJBVJVsoUajWFWlWxu0txoE/Z0GKVly5ReWixrFKWlcuyEOSNhnx0TFJrpOpAI18zlUm2cIGst7stcbXfu02FPPvuji1vfsGyNS8zFmMBD0BgAQfheWqOajSaZ5RhGmhtkhnKZVm5pFCrySoVxZ4uhZ5uxd4exb4exd5ehb4exXkDirWqPO0XYSk1Nwt1n7nrqh6Ke3Pkqr+3rXElSYW79cSS/2jntnN/vGv7SWfMX3Rt4SlGC6zFAloILOAg+s5+khYvqKm7UlF64LXa0CnBZCHIQmjuSB6jLMtkpUxWKkmy5tmAqZDnhdLo2L0jkPv/OlsHXtybI1cDfW2Pq5YQTHk9pb7P3HHLK86Yv+jaYMHZHAu4F4EFHETs61Vp8UKVSmWlR3jmFdrsnh0GvPnf5HTh5OL1icZ+b2uzd4TqQCZH5BYukA32H664kiQV7rEvy/w72za/+se7tv3dqYMLt6bWuZmH7UGBGYTAAg7C89Yu3rLmD3JMU3bf9XJzldnhHrm6z6O5WTJp0Vc33/7CUwcXflDuJuPyOYBEYAEHxw9tzATurbMF58v6piSuWo8rBTO/etf212yrj/3LwkotZ5oQaJoj4+YAMEtN7nO1ZOHUxpUkl1slRLt9bN+J39625YmSPHniH+6ACCwAmLmSS6WSwtBiWU/PlMZVi5kpz1MqXze849kuaXKxOzDXEVgAMBOlJKtVFJYukWrVTsRV8zDcQ09W1g93bj13y9jofJMKd+dnC+Y8ngQAMNOkJPX2yI5YIpVKj/jagu3gUigFS1vGxtZfcvcdp7maw1rAXEdgAcBMMbklxfxB2ZLFze0npsGEXHJXJUb9dHjnc0kroInAAoCZ4J7F7IsU5s+TTa/tpiyY6epd28/dUR8vW3N1GDCnEVgAMN2lJFWrsqVDsr7eaTFqtT+XVDLTWJEv/c72zY+VmmuzOnxYQEfxBACA6ch0z5SgDQ4oLF0iq5Q7tpj9IVg0K/bkE6Vrd+98mktyEViY29ivBACmoyJJ5ZJs/nxZb3fzvmk2crW/JHktlnT76N7Thxv1OFCqFMndAju7Y47iXxgAMJ1MLmTv61VYeoSsr+fe+6Yxdw+VEHTryJ7jto6PrVRrf/lOHxfQKXzxA8B0kZJUKskWL1JYskgqZdN1SvABXAols7S1PrbstpG9a1p3c1Ih5iwCCwA6rRVRNtgvW3aErL93Roxa3V8hpe6Y2VW7tp0sSdFsZtQhcBiwBgsAOmUyoLq7ZPMGZbVq8+UZMmp1f+4egpnuHBs5teFJJQsz8wMB2oDAAoCpNjk6VanIBgeai9jDzN89yiXLLOjne3f/UpBKkhqdPiagU5giBICp4t4cnSqXZYsWKExOB0ozPq5azMzUSGnV1bt2LJQkd2cdFuYkRrAA4HBLSTKTyiWpv0+ht0fKsnuDaxYxSYV7eev46HGS7vLmRz4r6hE4FAQWABwu7s20qNVkvd2yWRxWk0xS7km3juxdL+l/O308QKcQWKWmvY4AACAASURBVADQDmb7hZNJMUrdVVlfr6xaaYZVSrM2rCYFszSRinDj3t3rpOb2DZJm9wcNHACBBQCPlntz5/UQmqNVXTWpp7t5aZt7Xl80I2z286AgM61J7myEhTmLwAKAh2OyFFz3ngVo1jz7r1yR9dSacVWpSFlsLlrffx+ruRFXSi6VQ9AdYyPzN4+PammtO3HJHMxFBBYAHMxkJE2e5Rdjc7f1UkmqVaWumqyUNUevzJpTgPmcGa06IDMpd+8fL/J+ScNiR3fMQQQWcDDu945EzLBdtdEGZlKp1AyqciaVy80LMJfKzcvYSPd+bez/NTKH40qtmIpmvVkI83RvYPEEwpxCYAEHU65IPV3NH7IE1uxlJoUoxSCLsTnFl2WyrDUyFezeX12Sz/7F6o+GyTReFLXRPO+95y5gjiGwgIOwwX6F5UcoZATW7Of3+eW+r2qNTuVpro9OPSSXWyVEbRzZ23XDnl29x/QNKskVaCzMMQQWcDCTp92nRGCBuDoEwawWzHpaL/KJw5zDpXIAAIdDED9jMIfxxQ8AaCfTvRuL9hzsDYHZjMACALTb5Hx6uaNHAXQQgQUAOFxYuIg5i8ACAABoMwILAHC4MIKFOYvAAgC0k0uKrd/v7eSBAJ1EYAEADguTik4fA9ApBBYAoO2S+3juPtp6kalCzDkEFgCgrZJcXVk21lcq7+v0sQCdQmABANrGZF5PhZZ39Yys7+3fI4nrEGJOIrAAAG1lkpL7aOE+3LqLKULMOQQWAKCd3CQV7nuT+y41e4vAwpxDYAEA2iaYvJ6Sltd6di+t9TSSewxmBBbmHAILANBOltzVnWW3VWNk6ApzFoEFAGinIEnJ/ebWyzQW5iQCCwDQNoW7VWOmJywYukmSjMDCHEVgAQDayqQUzX7aepHAwpxEYAEA2sXdXaUQtj12weJNkhSMPbAwNxFYAIB28SSpLytfO1iujE/e18kDAjqFwAIAtEUwS42U/KSB+VdFsySxhTvmLgILANAWJqnhhZ0yuOBKkym58zMGcxZf/ACAdkgmZYX77qFq102S5EwPYg4jsAAAj1ow8/GUtK67//rlXd23SGzRgLmNwAIAPGomeb0otKKr57p55epokmfGJXIwhxFYAIBHy92VBVM6ff6iy2sxU/LmRZ+BuYrAAgA8arlcfVl517F9g5dKUpCKTh8T0EkEFgDgUTHJi5S8t1T6/rF987ZJMjYYxVxHYAEAHhUz88Ldzlmy4sJyCObsfwUQWACAR8VNCrmn7afNW/gttS6XA8x1BBYA4BELZsVIntvJAwsuO7p3cKMk4+xBgMACADwKJgWXp8cvWPyVrizz5B7Z/wogsAAAj5BJqZFS6CuV73js/CVfbN3N2YOACCwAwCNkZppIhc6Yt+iLx/QN7kruMTA9CEgisAAAj5C7h2ghnTu04iOSZKbU6WMCpgsCCwBwyEzKG560qrv3y6cMLLiheRe7MwCTCCwAwKHyaCHsy/P8qYuW/mt3ViqSe2BxO3AvAgsAcEhMlsZSHlZ29Vx57pIVX2ttLMr0ILAfAgsAcEjMFBop6ZcXL//HpV3djeRuLG4H7ovAAgAcilSkZIOlytWvWnXk5yUpmjF6BdwPgQUAeLg8mvmevOEvXr7mLwdKlQmXYqcPCpiOCCwAwMNiZmkiFXFZrfs7zxpa9RVv7uLO1CBwAAQWAODhcLlC4e6/ve64vxiqdY25uwUxPQgcCIEFAHhIJvN6ym1978Dnf3nxsq+7FIIZl8UBHgSBBQB4KMlMFsz2vHLlUX9WCVFseQUcHIEFADiozILvmqjb0xcv+9unLV7688I9iqlB4KAILADAgzJZmkgpDlW7rv7N1cf8fXMgS4mL4gAHR2ABAB6MBzPtyycav7Z6/ZuWd/WMJHcFsako8FAILADAAUWzYrhRD2cvWf53L16+7ltJHgObigIPC4EFAHgAk4o8peyIatf3fnPNMe9x9yDneoPAw0VgAQDuz80sTKS05w/Wn/w7R/b0j7gkrjcIPHwEFgBgfx6aU4P2K0tX//4TFw1d4+6BqUHg0BBYAIB7BFkxXuTZExYM/evr1x33byZj0yvgESCwAACSpCAV9VRkg+XK9/9g/cm/318qm0vJmBoEDhmBBQCQmRVJiuUQ73jP8We8ckVXz94kt8DoFfCIEFgAMMeZlEwKI3m+67fWHPOSUwcX3lK4Ry7kDDxyBBYAzG0uyUYajeK1a4553StWHvnd5B65kDPw6BBYADB3pWjm9VToN9Yc/XuvXXvsRck9mlnBpXCAR4fAAoC5yTML2t2oh9PnLTr/t9Yc+yGXMplxnUGgDbJOHwAAYMqlaKbdjXo4Y97i89913OnvseY/uHP+1Q20B88lAJhbPJqFXRP1cMa8Re/8mxMf++7BciW65IxcAe3DCBYAzBEmJUk2VuTpCQuGzn/PCWf8RW+pFFwqgpFXQDsRWAAwBwSpkBRHijz/9dVH/955q9Z/qCtmMUmJqQyg/QgsAJjlTEpJiiN5Y99r1xz7G69de+yFkqI344qNRIHDgMACgFksmhXjRRFLIdzypqNOfPUrVx51hbtHNysYuQIOHwILAGYnD2ZprMjjvHL1m+887rRfO33eoluTFI24Ag47AgsAZhmTCpPFnRP1+OSFQx/53XUnvOXI3v6R5J4Fs7zTxwfMBQQWAMwi0axoJI8Nz4d/d93xb3nx8rX/1lcqq3APkbgCpgyBBQCzgDU3Dw27GxNxaa37+29Yd/z/OXvJ8h9LikmeonHhZmAqEVgAMLN5MCsaKWXDeaM4a+ER733t2mP/an3vwL6iddHmIPa4AqYagQUAM5O3Ng6No0WeLaxUf/D6Fcf98UuXr7s8mik1pwSLTh8kMFcRWAAws3gwS+4e66mIybXjBcvW/P2rVh71d0O1rrqkkNw9MCUIdBSBBQAzR8osaLRoRMnyI3v7L3zZ8iPfdc7QihslKbmHYJa47A3QeQQWAExvk6NRIbmHbfUxHd8/79IXL1/7vnOHVny9HKJcipInRq2A6YPAAoBpqrVnVTZeFLFwV39W+uHr1x37vhcvW/df8yvVJCm4XCYrxEJ2YFohsABg+nCTXDKZKYwVeSZJiytd337SwqH3v2bV+i/Mr1QnJKlwj9GsMMIKmJYILADovMl9qmIjpdBIhVzKj+0bvPD5y1ZfcNrgwi8N1bolSS6PciXOEASmNwILADrDTXIzc3ePe/NGcHf1lcq3Pnb+4s+eO7Ty46fPW/Sz7iyTJCvcLZglkxUMWgHTH4EFAFMjBTM3SS7FPCUr3G0iFerJSlvOnLf40tPnLbz45IEFnz9xYP7o5B8q3DOTCnZiB2YWAgsADo/JEaoUmiNQcbwoVE+FSmbem5W3r+zu+eZTFy276DHzF/1oea371mpsfktO7q2dFsy5fiAwMxFYwEPz/W6Y45qzc+aTXw5mNvl1Ye4yySfvsIYnaxQp1JujVFvXdPduWNbVc+3a7r7Lzlq89LJ1Pf3D+73rkHsKQVaw3QIw8xFYwEFEM2UWlFlQoq/mOjOTJlJS4YVNnr2Xp0J5avZ3FoKiTCFYSq6Nq7v7rj2md+DHq7v7rj2yt//mld29GxZVavvHk7lk7i4z88wCo1XALEFgAQexpzERttZHracoZ8kJrLnMpEbuXgxVa/XBUm08yccKT2ODpcqe+ZXqtnpR3Hbq4MIbl1RrN/WVyhtOHliwrRazsWqM9xmNSu6ZtzYPtXunETv1YQE4TAgs4CCeu3T1Px3TN+8rpRAazgjWXGYm29dIqXFUb//IgnJ1X+4+3PC0d1mte09fqXywPxuSe/DWxZkDa6qAOYHAAg7ijHmLrjpj3qKrOn0cmNZC4R50zyahku4dlZqMKtZUAXMMgQUcROEeXB46fRyYFlySTKb7hVRiCwUA90dgAQfR/MHJD08AwKHhX+YAAABtRmABAAC0GYEFAADQZgQWAABAmxFYAAAAbUZgAQAAtBmBBQAA0GYEFgAAQJsRWAAAAG1GYAEAALQZgQUAANBmBBYAAECbEVgAAABtRmABAAC0GYEFAADQZgQWAABAmxFYAAAAbUZgAQAAtBmBBQAA0GYEFgAAQJsRWAAAAG1GYAEAALQZgQUAANBmBBYAAECbEVgAAABtRmABAAC0GYEFAADQZgQWAABAmxFYAAAAbUZgAQAAtBmBBQAA0GYEFgAAQJsRWAAAAG1GYAEAALQZgQUAANBmBBYAAECbZZ0+AACHLqVkRVFkZia5S2aKMeZm5p0+NgAAgQXMSCEEDyE0On0cAIADI7CAGSSlFEII6aYbb1px2aWXPre7p1t5nqtcLjee/vSnf3HhokWb3d0YyQKAziKwgBlkMrC+e8UVJ77u9b/9/oWD8zQ6Oqr+/j59/gtf2NAKrGBmRaePFQDmMgILmIG6urrGF/QP1oeGhjQ2Nma9fb0j5XJ5otPHNYvZAe5jlBDAgyKwgBkopRQajUa50Wio0WhYo9GYcPcDRQDag5gCcEgILAA4gMm1bOPj4+U3vfGNf/T9733vhN6e3vHdu3fXnvjkJ337Qx/+8PvzPA9ZlqVOHyuA6YfAAoCDcPdsx/btz77zjjsf09/frx07dmjH9h1lSe9Xcy9BAgvAA7DRKAA8hFKpNF6pVFK5XK5XKpVUKpXGO31MAKY3AgsAHoK7m7uH/W6sdwNwUAQWAABAmxFYAAAAbcYid2AWSymZJPOULHlzp4EQgszMzSyZtXemy93Vmj6zlJL5YX5Md1dKyaz5Ti2lpMnHNDO1HiuFELzdH2s7pZQk9+Ctj2FSDEFq7crv7h5DcE3jjwPAvQgsYBZxd/OUrGju5m4hhEKSKwTFB765FUVhrfh4VPs8tdYoWQjBWrvIewgHHCAPKSW1Hu+QomfyMfZ/OcboMcak1j5VD/KY93nch/OxppRCSimYmRdFEe+/5srdrSiKWBRFPMj78xDCgwblPTHqshCD1DobMcYD/E3dKxZFId37ufMQAnt0AdMQgQXMAq0f1tHMPGZZPnn/hg0buhoTE6tvu23jgptuvLHHTMWJJ520Z968eXeuXbt2Y19//+QP55BSOuQf1pOPG0IozMzdXddde21PjHHtNddcs3Db3XdXsizLH/OYM4dL5dKdy5Yv37Rw4cLJP24pJQshPKxtDg4UR3v27NGGG24YrFQq8yX133zzzd13bNrUI5l6enryk046cadLm4497rit3d3dk8ccJRUHi7sQQpo8rp6enr1ZluWTI2PurizLGjHGIsb4iC5J1Lrk0eTH43fddZc2b75r+ejIyNBPrvvJYKORx1IpS4957GP3xBD2SdqZ5/mO004/fewhAgzANEFgATOcuyvGzMvl8vC+ffvit7/1raM/e9FFz7pz051P27lzx6pG3hjcvWt3947t28uS+ZKhJfWurq7hgYGBuxcuWnjx77zhDf/21LPO+kUIQe6uhzuq1NqIU2ZW3HD99f1f/cpXn/vVr3zlFbt27lwraXDz5s09I/tGYgghLVu+bLxUKu2tVCubTznl1Mte9JIXf+xxj3/89dVq1VvXTnzQyJoc6dm4ceOCH3zve2t27Nhx8g++/4P1O3fuXD86OrJ0293bemOMXTJVd+7YUR7ePVyWmcrlchpasmRUZsPz5s3b9MQnP+kzv/Fbv/mfq1at3iUpSrpPHLViz++6886+t/3pn/3J1q1bV5TLpXqRF+XbNt52bLVaVZ7nsbu7W9dec83jnvfs5/yb3DPdL/rMzFNRZOVKZdvb33H+n5x08sn1yfctSUVRhBhjGh0d1f987WsnXPzVr7702muvO3tsdHTJxMRE75YtW7om3375iuX1YKEuaSylNLp06dI95XJ5Y4jxpmee88ybQwg/funLX35tb29vOpS/OwCHH4EFzHBmJrnbRz/yLy/f8PMNx97ws+ufM7kWqVKpyMxUKpV8+YoVLsnq9XppeHi4Z8eOHUtvvummU77zrW//7kte9rL3vPFNv/d3a9au9dQcXjnoY06us6rX6+nDH/zQi9//T//0nvHx8SPdXZVyRRZMg4ODPn/+fEmK9Xq9PDo62tfY3li66fZNp33ly19+0wknnPBvf/HXf/WOk0855e5UpBhieMBo0ORu6sPDw7WnP+Wp352YmFgnSUVRyCTFLFOpVFJzcMlVq3V5X19zVK5IKewbGR2QfGDXrl0rb7zxxif81+c+97uv+bVfe/2b3/KWS0OM9w87k+Tj4+NdV1999Us33X77qkqlcs/nMcYodw9ZlmnPnj2rfviDH/y66YHX0DEzFUWhWrW2fXh4+O2S6pOvm4yrq668cs1b/+AP/+RnP/vZr8cYQwhBWZYphKChoaFkZnJ3jewb6ZGrR9YMzeuuu04ppdNM0lVXXql6vX7HM8899+Te3t4dk8d/KF87AA4fAguYwSbXIe3Zs6f7ogsvfGu5XFatq1ZkMSsklcbHxy2lpImJCavX6yZ3VWs1lUqlRlEUQZKFEHo//rGPvfeWW24e+vgnP/nmgYEBSynpwaYLJ+OqKIr0lje9+V2f+I//OH/RokWq1WopZlmeiqI8NjqqvXv33jOcEkJQd3e3enp68tYi7tJVV13127923qsf97H/+I8XnXTKyTfuP8pzIOVyuV4ulyfMLJpZHB8fV0pJrTVJMjONj4/b8PCwpZRUKVdUqVaVZbGRZVmQpPHx+lF//s4//0JvX99zX/f61192oEvdxBh9YGBgdGTfvqJSqXjruo/WOmFA7q5SqeRdXV0HPFYzS0VRhGq1OloqlSY/Z3L3EGNM//LhDz/5fe99739M1CdW9PX1ubunGGPu7uXx8XHljcY9n4TJhfqeXKVSSYODg+7uhbvnrdirM2oFTE8EFjALhBCsv78/TynF+ng9bt+zPVqwiRUrV2yuVqu7Pfmoyz3LsurG225fMT4+tmBwcFCSPM9zX7JkSfGD7/3gTR98/we+//Z3nP+ZlFLQg42GuIIFK970xjf+6QWf/vT5RxxxRJHnuZtZNrx7d7lcLm8//sQTr1+8ePGd7n6XmfVPTEws/cl11625++6713d3dStmMQ0MDBTbt28/8dWvetUFn77wM2cdc+yxw0VRWIzxQI9b7NmzpzoyMlKWpJTS+Lp164Yr1cqYJx+Radzd6zFmvmLFitFqtep33nFHeePGjSt37dq1ure3V5I8xpjPnz+/56Mf+Zd/eO7znvekJUNDe1rroe6JrDzPtWXLlnDHHXfEarWaPKXQ19+vcrl8zxRqvV63u7dubRaQ3/dwzYKKIg/VWi3Ux5sbvrei1K+5+upl73vve/+1MdFYUavVGkVRZGYWdu7YWbag0TVr192eimK37r38TtnltVJWqm3ZsqXvtttu68myrJrFmFWrVY3X69HdcwGYdggsYJYYHR3NQgh7jzn2mIuf/eznfHPxksUbjlq//tae3t6tqShGXVKplFU33LBh/TcuueQZX/rCF9/aaDTmxRi90WiE3r5ev/DTnz7/Va8+7wurVq0an5ye2/8xWjFSfOzf/98TP/2fn3rHwoULU57nJinWx8fzc8495+9e+vKXferMxz7uur6+vvsc31VXXrnw0ku+ce4nP/GJt+/Zs2etJPX29jY2bdp0yt++733nf/ijH/39GGNoRYxLuufXGGP+q89//p+dcuopA7Wuri1FXuw++ZSTt3d1d+9NRbHHzEaT+0Qpy7R6zRpJ0vZt27Rhw4bl//X5z73wS//9xXflRdErKVaqlfzWW2896XOf/ewz3/DGN16o5tSaJqcLFy1atPsv//qvXrdv377+LMZGfWKi9omPf/zPb77p5uOr1WoxMjISjz7mmG//+m/8xl8UqSjFcL+F7iZ58hizOHL0MceMt45fZubvePvb3zw+Nr6uu7u7kVLKWltZ7HvBi174t2c/8xnfOPGkE39e5MW2/bZiyNy9u1wu92687bZ5t95662ClXFl41+a7Fv3sJz9Zlef5eK1Wm2i9LdODwHTSGrrmxo3bDLg1Go3M3XXBpz59dn9XTzp63ZG+ZsXKdOxR6/O3/uEfvm3DDRuGhoeH7QB/1lq3e+771H/+51OWDx2xc+3KVWntylXpyNVrfOniJf6hD3zgWa2pt7D/26eUlFIKm26/PTvt5FOuWLl0ma9btTo/as1aP2LRotF3nX/+c/K8Mfn2sdFoZI1GIzYajazIi2zy/Xzrm5cffexRR924atnytG7V6nz92nXF0MJFw9/77nePcvcHPO5+j/1Qnx9z91AURdb6PMXJ133oAx/4tdbx+rpVq/OVS5elc3757I81Go2H9Xl/5ctf9o2hhYv86HVHTiwcnOevfuWrPvlw/84mj/vGn/+86+h1R25evXxFWrdqdbFu1Wpfs3Ll7vf/0z89/kH+rg7093jPbWJiQo1GQ5P7jXHjxm163djJHZjBzMxTShazOPqq8867eP3R6zf39fWFoiiyPM9jaz8nmwyUlJK17i+97OUvv/zsZ5z9ttHR0cm9sIq80fDLLr30V1uLrO/z/SHP88zM0te+9rVnbNy48fRKpZJijNqxY4de9opX/Mn573rXl0KIWZ7n0d2LLMvyLMuKLMvyEENeFEVoNBrlJz7pyRte9erX/P7Y2JiZWUgpuZn1ffpTn3q+dOC9rFprkWKe56U8z7M8z2NRFPt/fJMfo4cQ8ta2CkWe50FSPO81r/n3wcHBqxuNxuT7s40bN55RFMUDRvHdXXmex0ajUcrzPNu7d29fY6JRmlzrZGaamJgo53mejY+PV1vHc6DbZOCZJN18000nFUUxaE1pbGxMT33qU//xDb/7u1dI2v/vS/v/fbVuoSiKmDcaMc/zLKVUKpVKIcsy3X+UEcD0QGABs4ONj49XvbkBpsUY8yzLitZ+Tr7/LcuyQlKeUrLf/8M/+Ey1Wt3ozQsYe7lSsS2bt5yy8bbbQgihSK04cHdlWeYj/7+9e4+Sq6oTPf7b+5x6dVV10ulOd7rzDkYDJiGBvHijKI8BxhFm0Os4Oo7CHWVw7lxFGPB68d41Cooj9yqiztxx5CGgCNfxAQENgoKQkBdEQoAkdBJCdx79THdX1Tl77/mjTiVNpyEBtiGY72etWkCoOqeqeq3Od+2zz94DA/Lgr351bhAEKa11VCqVgilTpz552ac//V3nnLbW2jAMR11jKggCG4ZhxVqrPnnpp342ZcqUlVEUKeeqk8afWL7i/ZVKRWTf/KOXSaItqoVbEASjfr69X4hSEoahdc7ZfD4vZ5511rIoimRYKE0plUqZ/b7I6utqgRiHYRiPjBillBv+/1/hUfsetIhIGIYtzrmUSHXOXKlUkgv+/M9/lcSTe6WfV/KwQRCYMJWqBqvWkXPOOkdbAYcrAgv4I1FbiPNgRjSUUqK1lpkzZ3YvXLTwkaGhoVo0SHd3d/POnTunKqWc7LtzTimlzPYXX2xcsWLFyfl8XpxzenBwUM4444yfTp02bai2BMGBzquUkjFjxsipp532k3K5LFprFwSB6uzsnPXrZctaRPZu8bPfa1/vV+Ock6ampi21WUpBEMjAwEDqlw880PhK5/MtGRHcex5rrbS2tpaT//eajzdsKyAAhyECCzgCJVvAhFoHdv5xx62pBVY6nZaOl7Y3rl+/forIy8JDi4j09fVN7NrddXQQBM4Yk6qrqzNz5x37oKtuk3NQK7Ino2VywoknPjF8RElrnVNKza69RR+fs3Z5zTmnK5VK3yhPORSFUtvGpyzJ4qbOOZdOp+WhXz80O/neguQSIcUE/JEgsIAjlLXWBUEgrW1t7XE1dEKllK1UolypVGoWEXH77rATEZEH7r9/WjqdDp1zxlor6XS6Mn369KeqTxV3MBM/axExecrknba6KFYQBIHbs2dPat26dW0iIu4AoVE7Tm3PwNojiTddGy1KRsdirbVNp9OVVzvmH1ppaGizcy4Sqd6Nmc/n5cZvfOOK//jJT44Ow7CSXCJ0zjntks9Sm2PmRuyFCODwxzINwJHLiYiUSqUuEamISFpEIqWUVkqNSZ6jhj+3Uqm8vfqnSqy1UiwWe04+5ZQeEdHJpckDhkCyZIGOomiPiOwWkfFaa1MqlYL2F9qbRUSsc2q0HfeSsAqSYxh5laUJ4jiW1atW1ZVKpdYwDMe2t7fP04F+XZfj3oja8g9z5817Np1Ov1gul2c450RrLXEcz/yHT//9Lx9ctuz2BQsWLJ1/3HGPHPPOdw7KsAn1Nc650BjjgiCwTGwHDn8EFnCEqm0avHDhwu5p06cP9PX1pXO5XO0yX3HE06ub0TjbOvwPrbWdvb29lWw2K865g7reFhsTp1IpqVQq/UrUUO34yeTy7Cu9LpkHpoMgMM5Z2dK+pb6rq6vpsd/9bmqpVJqitZ543733ThgaKjVrrSfFcdzctXt31hiT01pn4jjOJlvfHNLdkmsT3adMnRqfcuop/3LP3fdc19jYGEVRpMIwFBFpu+X7N3/mxz/80d+Na2zc0djY+PSiJYt/19raumbOscc+M3XKlN1N48fvrq+vj5Pnq5GLowI4/BBYwBGurq7O1VYpH+Zl0wdqIymPP/b4mDAMRapzrqRUKrV+8pJLvqt14A52ZMg5p9PpVLRr1+6GQqHQaIyRIAheNlI2Um0bHWOM+Y+f/P8Tl9679P0P3H//uwYHB+cGQVC9M08pGT7yo7WW2lY15XL5TZ0Ubq11IqL/6ctfvmnVqlWnb2nfck59fb0kkRQ3jR/vTBxnent7J+/etWvyhg0bzhLnal/GcwsWLHhq9tw5KxYtXvzoSSef/HBTU5NLjktoAYcpAgs4ctX+ku53zg2JSMOBXrCjc0chWSNLqeplwpaHfv3Qxa/5xM5JEASSjHzVLi06Y8x+86RqcfXk2idzn7/qH69bu2btX5dKpWJ9fb3UjxljAq1jY0xYKpVEiRJRsncRztqluGKxD9lioAAAFm5JREFUaJP5TYd09KomObc0jR/ff/Ntt170v6/54hUrV676VG9PzzgR0cViUcJUygZBEGcymdq+h0qqoTtz1apVMx955JELbvn+zYNTpkx56v0XXvCdT1566S11dXWxc467CYHDEIEFQMtB3vAycmNkkeoIWHVPnYOcFuSqdzE651Sy8bOqBVs+X9cjUt1tRmTvZUHZ0t5e97cXX3znpo0bz6sfM0ZyuVzFGBMODQ4Gvb290tDQsGPm22d2RVG8xznb09ra2tPa2tZtjHkpl8t1LjnxhI7771u6+Oc/+9nnstmsHbmI6qFQ+8xHH33Mnh/ceef/WLN69U33/Pju//LUk0+esXrNmqM7Ozqn5Qv5tFJK0um0JIuIioiYfD5vCoWCGGPq2tvbF19/3VcW3/XDH33wezd//6Ozjj66w1mnlGZeFnA4IbCAI1ftDsG8UmrkgpujDokYY0b+kVVK7RIRpw52xYPkaUqpvfPAnHNq7NixduHiRZ0i1REfkeolsCAIzFeuvfbK559//rzGxkYTx7GKoihtrTVLTlhy4/nve99Pp0+fse1tbzuqK47jPc65/gmtrXsvD9ZsfO75rDW2FjoH9149q0WWUkrmzZ+/fd78+V+rlMtfW7FixfTOzs63rVm9evqunTvfsXbt2qNf2v7SXGvtRBPHQRzHQaFYFK11nM3lVJDPS3t7+5kf+fCH//W+Bx64cFzDuIobZe9IAG8eAgs4QjlrRbSWjRs3pnbs6AwymezeZRlEJB7tNXOPndu79L6lopRycRxLsVh84Ze/fnBhOp0e9fmvhRKRQrE4KCKig8AmC5eaFcuXty371bKPFQoFG8exKKVUFEV7PnHJxR/8x6uv/vnIkEoOFcRRrESJq63RFUXRfqu2vxlqEZQsMxGkMxl70sknbxaRzRdceKE452RwcDAYGhqqW/bLX07eunXrKY8/9thZjz/2+ElRFDUXCgUXRZGqr6837S+0n3v7bbedfullly111mkCCzh8EFjAEco6J4GIdHR0NHZ3decnTpoksm+OUlfyz+GX6tzbZs7svvcX9+6dTK61rmtubu6WV1ku4XW/v+rolV29evVJ27ZubZs0ebIyxti+vj71njPf+80vXHPNz6W6h9/eVexr70MpFYep6q8355xWSh12SxskW+DEyaVS7ZzTQRA4pZTN5/Mmn8/3X/TBDz4tIk+LyHfu/fkvjvk/N3z9hvVPr39vOp221lqVTqXdww89fOGll1229M3+PABejoVGgSNUstGyDA4OTgrDMBCRSEQCpZTVWneN9ppyufySiIgkk9T37NkzZunSpY3DIkG9kcfwc4VhqJxzsnXr1qOyuZy21kZKqSCOotJZZ599n4ioKIokDMN45L6Ef4BJ3yMP6C3WlFIu2acxrq3tVfs+rLXKGqvjOE6dc+6fPP2Fa675iFLSKdXf3c5aq7q7u+f7ei8A/CGwgCNQsnmzjeNIVq5YMTNXVyfOOVepVKS1ra131qxZ20X2zYWqGTdu3MbaIZLjpMul0szkv/fuhfh6H8PfX3VV+bJsfO655uQyoCuVSmra9Oldxx9//Isi4g6096EnVqoLse41ypw1r2rfh9ba6UDbIAjiOI6DhYsWdSxctOiBUqkkSimTSqeku7trzMbnnw9qdyoCODwQWMARKBkhMbt37c6tfGLlqdlsVqy1yhgjxWJxR2Nj40aRfauQ1/7iXrR4cXu5XC5rrQOttR0YGAgef+zxk5OlG3z/PrEiImEYFpL/ro0imeRxqFREpL/2npRSYowZm9wBeai4MAxdEASqZcKE7XFcnfIWBIEMDgzqzs7OUJKRr0P5pgC8MgILOAJZa7VSSh64//75O3fuXBSGoRMRHVUqrr6+/tlJkyf3OueCkfOWGhsbX2xqalofx7FSSsVhGMqjv/3tOV1dXYFSqrZ+ky/KOSflUmkwCThRSkkURZlSqVTnnBM5yBGbV9nP72DerxWRskg1NLPZrGzcuLH47LPP6jAMzWv5zG9khMk554wx0t/XN0br6q9ua62kM2lXX19v5NBsXA3gIBFYwB+JA/3l7ZwTY4w21qbCMDR79uyRf/+3712TjF45qe4nqM5473vuzefzYq3dO5dJKWWdc8GMo47qOe1dpz/e19cnSimVLxTM+vXrl9x9113naK3jOI4zxhj1GlZ1r42c6eEBlIwS6VQqLXOOPbZjaGhIlFKSyWTctm1bx23YsGGGUkoba1/xd5i1VsVxHBhjQq21S6fTpeEzp5LP9mqX1ZwkvyOVSOeI992otW4dtiDoqOcfeWylVGCMSUVRFMZxHFhr9YG+r+RzhEopGRwcDJ9Y8cSpyQKtOqpE0tAwrusds2bFyd2SXCMEDhMEFvBHoLY4pbU2SB565EMppYIgsIHW0aZNmwp/98lP3fjMM8+8N5PJWOecctZKrq6u6/z3ve8ukZfPv0qCR4IgkDlz5tztnDMiEhpjVKFQyF37pS/933vuvntuOp0uJXfCjfoeRnlPWms96gbG1loJgkCmz5ix2VlrlVKhtTbOZLLhnbffccHQ0KBNpVJijNnvXM45rbV2YRiaMAwrL27bVti+ffsMHejhn0crpdLJyJseOcKVjJYF2WxWFi05oX1gzx5RSulsNus2b9o06bcPPzxHa21NHIejfLZgv8n2zsng4IAJgiBKpVJxGIZGa22T72vU76f2OVKpVNzf3+++cPXVV/T09h4dBEEt/lxzc/NjqVTqkG9iDeDVsUwD8BZW2wqmUqmoF154Qc2ZO9dorUedn9TT0yNr16w56sFly95z1w9/9JHu7u4TC4WCs9bqMAyj7u7u1EUf+MCNxxxzzM7a0gbDX1/dZNmpD37oQ7+69eZbftPR0XF6JpOxopQrl8vTr7riyp+vXbX62tPPePddJ550Umc6nT7g+y+Xy7LuqafScRS1tU6c2DtlypTu2qXAINljb8aMGY9OaG3tLJfLLVrroFAouN89+uhfXvm5Kx/72tf/+TvJBsj7Wbly5dg1q1cvfP7Z505++KGHzti2bdvibC4rtfgRkfDW73//70448cS/b21tfaU5XU4pJc3NzeuzuWzZOZcxxsSFQiH89rduuuads2dvWrxkybOjvfDp3/8+aG1rsw0NDdUbAkTUpy+97KOtbW0z6upyz02dOnXb7LlzO/p6e3ccO2/e7mJx5P7aVeuffjq9ZvXqU++8/Y4Pr1q18qN1uZyz1koYhs5Yo//ioot+eMAvGsAhR2ABb21KKeUq5UrdF67+/O3f+uaNvUpJj3PSrUT2iCQ704iM2zMwMGlHZ2djd3d3Sz6fl3w+b5K1pqJSqZRqaGhY/jef+PjXRURZa11tlfVhJxJrrRo/fry56vOfv+KSj3/it9lsNmWMsel0WqIomnTDDTd884477rhy4sSJ7ZlMZqMT6U7GcKyI1ItIXkQCJ9KgRAqlUql+d9fucE//nvqL/+sll1951VW3SnVkxuogsNZavWDhwq2zZ8/+yW8efvhv68eONSaOdbFYTN3z4x/ftGrlyr846+yzHmhuadkhzuV37drV8OCyZVO11rM6XuqY1NnZOaFSLmfGjB0ruVzOOOesMUZZayWdTtvly5d/+sI/e//M884797Yzzz572YKFC1+q7X0oUo1KEZF58+c9NmFC64u9vb3TwjDUqVRKOjo6Fl/8Nx//7aRJkx53IpuVSEFExolSY6w1TT3dPfEN3/zGXy1ZsmRdEnVmxfLlH9+8efPJSkSK9fVDTeObBivlysD48eMH8vl8rxPZqUT6k5+ZGGMm7ty1s21n547J1rpMvpB3yche1Nvbm37HO2bdedrppz/KKu7A4YfAAt6Cklv4ja5y1lrd09MzeceOHZNl397JtWeLiBMdBJJOp6WhoSF2zlnnXKiUUgMDA6lisfjUv/zb//ur+ccd122tVcklqNHOa40x+tzzz1v+oQ//5SW33XrLv9bXjwl0dbQpbm1rU5VyedKGDRsmOWtPevn7qHIiUpukrbWWbDYrpVJJ4jgu7HdCEZdKpdRnPnf5/1qzZs3ZlVJ5WiabiY0xKpvN6s2bNp3x7W/ddIYaduzaqF4mk5Fx48aJtdZGUaR7enoCcU4KxWJtNE7q6vJuR0fnOV+85ovnpDOZqxcsXPilZM5WlLw/Z4wJjnnnO7tPPf20W26/7Qf/s6mpycRxbLLZrPT3949fu2bNeaLUvgn3yYT8uro619/X1zz8wxQKBdPa2lpOZzKqUi5n+/v6cyLSuGnTJrHGyL7jJN+bUpJKpaQunxelVNk5F2qtg3KpnG5qbFxx7Vev+2zT+CYxxqhDtGQFgINEYAFvQcaYVKlUCsvlskSVSHJ1OUmn05Krq7OqOlpkZVjZJFvgBNaYoFwuh5VKRay1kkqlSrPnzPnul6798peOO/74zgNNlFZK1eZm6euu/+q/t7a17vn2t266vr+/f2o6ndaZTEYymYzNZDLxiBEVLdW7ArVSSpfLZUlWYJehoSHp6emRoaGhxpHnq8Xj4iVLXvrK9ddfcMVnP3tHV1fX24vFoqRSKakfM6YybPKRTiaR60qlIkNDQ9Lb2yv19fVREAQrP3P5Z7+VzeXkq9de97VSqdSSy+UkV1cnuVyuPHbsWMlkMn2jfWattXHOqSuvuuq6dU89teCptU+eWygWJZfLSRAElWw26/Z+b0opVV2sNdi6datasXxFy3vPPFOstaK1lv7+vuaOjo5MNpuVbDa7d+5cfX29cyJGjfy5VZe+CCqVik7unpRUKhXNmTvnezd95zufnzZ9+k7nHHEFHIYILOCtxYmI5Av5HVOnTf1dc0vLWBPHdRs2PJOvlKO80ionr3DzirNOMtnMwJQpU3Y0NDS8cNzxx//mXe9+161nnn32c1prsdbqZCTqVSUbFrt0Oq0/d+WVdy058YQHf3THDy/5/bp1f7J169a3b9mypTkVptJulMXOlSgXxVH/jBkz9oxtGNsbVaLetoltuwvF4q45c+c+Mvwz1mitrTFG/9kF71/d1tZ6+je/8Y0r1qxefea2bS/OtMakZdhEcmutFIvFrokTJ25vmdCyeeKkSY+e/6d/es+JJ530bG0u1Izp0x/+wQ9+8N+3bdn67ifXPnlUmArzu3q6pb+/34x2/toSEW1tbUO333nnBf98/dcuv+/eey/atGnTrDAM05l0WoIgkFK5LMYYsdbahoaG3a1trTtzdbmB4cf66Mc+9oV169YtViJHPbP+mQla66ZtW7c2dHR0jNFa77epYvKZXFtbW2dLS8sL02dMf/ysc865+aIPfGBlJpMRZ51SmkuDwOGIwALeQmpzgt717nc/8dN7f3FKGATjRKnik2vXFsqlclFrnXfi8iKSTR5ORJQSVbLW9uXqcl0zZszYPmHChPZxjXsHjFQy7+igR0GS6LAiok899bTdp5562pc7Ozu+/Nyzz83etnXbxFQ6Nc45t/f8IjIkIkNKqYEoivpnzZrV29jY2F2uVHZPnjw5zmQyw4+9XzAEyXysRUuWvHTzkiX/bfWqVeNf2PzCHGPMBFGSERFRogaNNT1jx4zdMXXa1PZJkyd35fP5vcdwzmnnnJx7/vlbzz3//H/YsmXL2BXLlx+jRLUMDQ2NnXfc/Idr5xrl8zrnnGqZMKFy3fVf/aePfuyvb3xy7dp5QRBOXLXyiYadO3fWHXf8gu6Wlpb+2MS7Ghoadk2fPn17U1PTruE/t89cfvldInKXiMimjRsDHQQtmzduatq5a2dDoIN6J66Q/NxERJwSNWCt6Zk8dcpLzc0tz8yYMaO2qfZr/pkBOMScczx48HjrPdQbfL2OoiisrcH0Rh7GGBVFUfAG3lOYvBd9MOcyxgQHedwgiqKgNql9+DHiOA5fz3u11kryWV/253EcH9Tr4zjWyRpYr+v8xpgwjuMDfk88ePB48x+MYAFvQa5q7yKXw1YTH76W0/B/r40KVTdDrm69EosHyQbLJllYM3D71pMa7fwi+/YsrP17/EpLLYx2LhExwxYmHX459OWfUSkz2nGTY8TWWmWrC5UqcU7pZMPoVzu/Ukpqq7cnr9XJFjZuxIKhtfdgh6+FlYyOWZG9P7PaRtci+76v/b635PuyWmsvPzMAf3gEFvAWpJSqXUpzIvvuynsz1eLnUJxr2GW8132+Whi+wdcakeqVgJHLWhzMMWTkLZYA/mi8+b+VAeAt7mUrtgOAEFgAAADeEVgAAACeEVgAAACeEVgAAACeEVgAAACeEVgAAACeEVgAAACeEVgAAACeEVgAAACeEVgAAACeEVgAAACeEVgAAACeEVgAAACeEVgAAACeEVgAAACeEVgAAACeEVgAAACeEVgAAACeEVgAAACeEVgAAACeEVgAAACeEVgAAACeEVgAAACeEVgAAACeEVgAAACeEVgAAACeEVgAAACeEVgAAACeEVgAAACeEVgAAACeEVgAAACeEVgAAACeEVgAAACeEVgAAACeEVgAAACeEVgAAACeEVgAAACeEVgAAACeEVgAAACeEVgAAACeEVgAAACeEVgAAACeEVgAAACeEVgAAACeEVgAAACeEVgAAACeEVgAAACeEVgAAACeEVgAAACeEVgAAACeEVgAAACeEVgAAACeEVgAAACeEVgAAACeEVgAAACeEVgAAACeEVgAAACeEVgAAACeEVgAAACeEVgAAACeEVgAAACeEVgAAACeEVgAAACeEVgAAACeEVgAAACeEVgAAACeEVgAAACeEVgAAACeEVgAAACeEVgAAACeEVgAAACeEVgAAACeEVgAAACeEVgAAACeEVgAAACeEVgAAACeEVgAAACeEVgAAACeEVgAAACeEVgAAACeEVgAAACeEVgAAACeEVgAAACeEVgAAACeEVgAAACeEVgAAACeEVgAAACeEVgAAACeEVgAAACeEVgAAACeEVgAAACeEVgAAACeEVgAAACeEVgAAACeEVgAAACeEVgAAACeEVgAAACeEVgAAACeEVgAAACeEVgAAACeEVgAAACeEVgAAACeEVgAAACeEVgAAACeEVgAAACeEVgAAACeEVgAAACeEVgAAACeEVgAAACeEVgAAACeEVgAAACeEVgAAACeEVgAAACeEVgAAACeEVgAAACeEVgAAACeEVgAAACeEVgAAACeEVgAAACeEVgAAACeEVgAAACeEVgAAACeEVgAAACeEVgAAACeEVgAAACeEVgAAACeEVgAAACeEVgAAACeEVgAAACeEVgAAACeEVgAAACeEVgAAACeEVgAAACeEVgAAACeEVgAAACeEVgAAACeEVgAAACeEVgAAACeEVgAAACeEVgAAACeEVgAAACeEVgAAACeEVgAAACeEVgAAACeEVgAAACeEVgAAACeEVgAAACeEVgAAACeEVgAAACeEVgAAACeEVgAAACeEVgAAACeEVgAAACeEVgAAACeEVgAAACeEVgAAACeEVgAAACeEVgAAACeEVgAAACeEVgAAACeEVgAAACeEVgAAACeEVgAAACeEVgAAACeEVgAAACeEVgAAACeEVgAAACeEVgAAACeEVgAAACeEVgAAACeEVgAAACeEVgAAACeEVgAAACeEVgAAACeEVgAAACeEVgAAACeEVgAAACeEVgAAACeEVgAAACeEVgAAACe/Ser2aZ+WIHg1QAAAABJRU5ErkJggg==;clipPath=inset(15.67% 31.95% 40.33% 31.95%);" parent="1" vertex="1">
          <mxGeometry x="184.9" y="81.07" width="59.8" height="78.93" as="geometry" />
        </mxCell>
        <mxCell id="k5H__xr2OXsbT5dIlqPR-32" value="&lt;div style=&quot;font-size: 17px;&quot;&gt;&lt;font style=&quot;font-size: 20px;&quot;&gt;Beat&lt;/font&gt;&lt;/div&gt;" style="text;html=1;align=center;verticalAlign=middle;resizable=0;points=[];autosize=1;fontColor=#000000;" parent="1" vertex="1">
          <mxGeometry x="185.8" y="154" width="59" height="36" as="geometry" />
        </mxCell>
        <mxCell id="k5H__xr2OXsbT5dIlqPR-33" value="" style="endArrow=classic;html=1;rounded=0;entryX=0;entryY=0.25;entryDx=0;entryDy=0;strokeColor=#000000;" parent="1" target="k5H__xr2OXsbT5dIlqPR-27" edge="1">
          <mxGeometry width="50" height="50" relative="1" as="geometry">
            <mxPoint x="250" y="120" as="sourcePoint" />
            <mxPoint x="480" y="180" as="targetPoint" />
          </mxGeometry>
        </mxCell>
        <mxCell id="x-xHvQbwHUCqCqkhzXcr-2" style="edgeStyle=orthogonalEdgeStyle;rounded=0;orthogonalLoop=1;jettySize=auto;html=1;exitX=0;exitY=0.5;exitDx=0;exitDy=0;entryX=1;entryY=0.5;entryDx=0;entryDy=0;strokeColor=#000000;" parent="1" source="k5H__xr2OXsbT5dIlqPR-34" target="k5H__xr2OXsbT5dIlqPR-27" edge="1">
          <mxGeometry relative="1" as="geometry" />
        </mxCell>
        <mxCell id="k5H__xr2OXsbT5dIlqPR-34" value="" style="shape=image;verticalLabelPosition=bottom;labelBackgroundColor=default;verticalAlign=top;aspect=fixed;imageAspect=0;image=https://freesvg.org/img/elastic-kibana-fw.png;clipPath=inset(0% 19.67% 22.67% 13%);" parent="1" vertex="1">
          <mxGeometry x="652.58" y="210.52999999999997" width="68.72309452993665" height="78.93" as="geometry" />
        </mxCell>
        <mxCell id="k5H__xr2OXsbT5dIlqPR-37" value="&lt;font style=&quot;font-size: 20px;&quot;&gt;Kibana&lt;/font&gt;" style="text;html=1;align=center;verticalAlign=middle;resizable=0;points=[];autosize=1;fontColor=#000000;" parent="1" vertex="1">
          <mxGeometry x="651.3" y="286" width="80" height="36" as="geometry" />
        </mxCell>
      </root>
    </mxGraphModel>
  </diagram>
</mxfile>
